<svg width="363.292" height="78" viewBox="0 0 363.292 78" xmlns="http://www.w3.org/2000/svg"><path d="M10.384 14.33H4.092v5.17h7.26v1.76H1.958V5.86h9.35v1.76H4.092v4.95h6.292v1.76zm11.858 6.798l-1.672.176-.132-.77q-1.848 1.056-3.586 1.056-1.738 0-2.761-.935-1.023-.935-1.023-2.519 0-1.65 1.144-2.563 1.144-.913 3.212-.913 1.21 0 2.794.286V13.78q0-1.21-.693-1.804-.693-.594-2.123-.594-1.672 0-3.652.77v-1.606q.924-.374 2.002-.583 1.078-.209 2.046-.209 2.178 0 3.311 1.012t1.133 2.97v7.392zm-4.862-1.144q.638 0 1.43-.22.792-.22 1.408-.572v-2.816q-1.034-.264-2.442-.264-1.32 0-1.947.495t-.627 1.485q0 1.892 2.178 1.892zm10.142 1.276h-2.068V10.216l1.672-.176.176 1.012q1.452-1.232 3.102-1.232.506 0 1.012.154v1.694q-.528-.132-1.078-.132-1.584 0-2.816.99v8.734zm15.18 0h-2.068v-7.524q0-2.354-2.332-2.354-.616 0-1.375.209t-1.375.561v9.108h-2.068V10.216l1.672-.176.132.77q1.804-1.056 3.586-1.056 1.826 0 2.827.957t1.001 2.717v7.832zM61.314 21.04l-3.036.286-.198-.682q-.77.462-1.606.715-.836.253-1.628.253-1.914 0-2.948-1.023t-1.034-2.937V9.864h3.828v7.304q0 .792.319 1.166.319.374.979.374.418 0 .825-.11t.671-.286V9.864h3.828V21.04zm12.936.22h-3.828v-7.304q0-.792-.33-1.166-.33-.374-1.034-.374-.418 0-.825.11t-.671.286v8.448h-3.828V10.084l3.036-.286.198.682q.77-.462 1.606-.715.836-.253 1.628-.253 1.958 0 3.003 1.023 1.045 1.023 1.045 2.937v7.788zm6.16 0h-3.828V4.716l3.828-.352V21.26zm6.248 0H82.83V10.15l3.828-.352V21.26zM84.744 8.544q-1.034 0-1.606-.528-.572-.528-.572-1.474t.572-1.474q.572-.528 1.606-.528 1.034 0 1.606.528.572.528.572 1.474t-.572 1.474q-.572.528-1.606.528zm16.236 3.872q-.396 0-.825.11-.429.11-.715.308.022.154.033.319.011.165.011.319v7.788h-3.828v-7.304q0-1.54-1.254-1.54-.396 0-.803.11-.407.11-.693.286v8.448h-3.828V10.084l3.036-.286.198.682q.748-.462 1.595-.715.847-.253 1.639-.253 1.98 0 2.97 1.1 1.826-1.1 3.608-1.1 1.892 0 2.915 1.034 1.023 1.034 1.023 2.926v7.788h-3.828v-7.304q0-1.54-1.254-1.54zm11.242 8.844h-3.828V10.15l3.828-.352V21.26zm-1.914-12.716q-1.034 0-1.606-.528-.572-.528-.572-1.474t.572-1.474q.572-.528 1.606-.528 1.034 0 1.606.528.572.528.572 1.474t-.572 1.474q-.572.528-1.606.528zm11.748 3.96h-2.662v4.95q0 1.364 1.32 1.364.572 0 1.364-.242v2.53q-1.122.506-2.486.506-1.958 0-2.992-1.001t-1.034-2.915v-5.192h-1.672V9.996l1.848-.066.242-2.882 3.41-.352v3.168h2.662v2.64zm11.484 5.588v2.728q-1.672.792-3.718.792-3.124 0-4.752-1.551-1.628-1.551-1.628-4.499 0-1.826.737-3.201t2.024-2.112q1.287-.737 2.937-.737 2.288 0 3.619 1.287 1.331 1.287 1.331 3.509 0 .814-.22 2.134h-6.6q.11 1.232.847 1.804.737.572 2.211.572 1.628 0 3.212-.726zm-4.4-6.006q-.858 0-1.364.605-.506.605-.528 1.639h3.476v-.44q0-1.804-1.584-1.804zm17.534 8.954l-3.036.286-.198-.682q-1.54.968-3.212.968-2.156 0-3.388-1.562-1.232-1.562-1.232-4.29 0-2.992 1.441-4.62 1.441-1.628 4.103-1.628.88 0 1.694.176V4.716l3.828-.352V21.04zm-5.28-2.332q.33 0 .748-.11t.704-.286v-5.984q-.572-.088-.968-.088-1.166 0-1.716.847t-.55 2.585q0 1.562.429 2.299.429.737 1.353.737zm22.616 2.552h-10.274q0-1.386.209-2.321.209-.935.759-1.782t1.804-2.035l1.628-1.562q.946-.902 1.386-1.595.44-.693.44-1.353 0-.858-.605-1.32-.605-.462-1.727-.462-1.76 0-3.322 1.166V7.07q.814-.594 1.925-.913 1.111-.319 2.343-.319 1.65 0 2.871.583t1.87 1.606q.649 1.023.649 2.343 0 1.232-.627 2.299t-2.167 2.409l-1.386 1.21q-.77.66-1.133 1.089-.363.429-.495.825h2.816q1.386 0 3.036-.132v3.19zm8.778 0h-2.64l7.304-15.07h2.64l-7.304 15.07zm-3.674-7.48q.594 0 .814-.627.22-.627.22-2.299 0-1.122-.088-1.738-.088-.616-.308-.891t-.638-.275q-.396 0-.616.253-.22.253-.319.869t-.099 1.782q0 1.672.22 2.299t.814.627zm0 1.98q-1.892 0-2.937-1.287t-1.045-3.619q0-2.332 1.034-3.608 1.034-1.276 2.948-1.276t2.948 1.276q1.034 1.276 1.034 3.608t-1.045 3.619q-1.045 1.287-2.937 1.287zm12.012 3.74q.594 0 .814-.627.22-.627.22-2.299 0-1.122-.088-1.738-.088-.616-.308-.891t-.638-.275q-.396 0-.616.253-.22.253-.319.869t-.099 1.782q0 1.672.22 2.299t.814.627zm0 1.98q-1.892 0-2.937-1.287t-1.045-3.619q0-2.332 1.034-3.608 1.034-1.276 2.948-1.276t2.948 1.276q1.034 1.276 1.034 3.608t-1.045 3.619q-1.045 1.287-2.937 1.287zm19.998-3.388v2.728q-1.716.792-3.63.792-2.794 0-4.257-1.54-1.463-1.54-1.463-4.466 0-2.948 1.474-4.521t4.268-1.573q1.804 0 3.52.792v2.728q-1.606-.594-2.728-.594-2.53 0-2.53 3.124t2.53 3.124q1.188 0 2.816-.594zm11.792 2.948l-3.036.286-.198-.682q-1.628.968-3.3.968-1.804 0-2.871-.99t-1.067-2.684q0-1.738 1.177-2.717 1.177-.979 3.289-.979.946 0 2.222.198v-.594q0-.792-.506-1.166-.506-.374-1.584-.374-1.518 0-3.74.748v-2.728q.99-.374 2.178-.594 1.188-.22 2.266-.22 2.464 0 3.817 1.1 1.353 1.1 1.353 3.102v7.326zm-5.28-2.024q.836 0 1.496-.396v-2.002q-.638-.176-1.232-.176-.836 0-1.265.341-.429.341-.429.979 0 .594.374.924.374.33 1.056.33zm7.458 1.892l-.396-2.86q.77.374 1.804.605 1.034.231 1.958.231.902 0 1.397-.264t.495-.77q0-.308-.253-.506t-.803-.33l-1.122-.286q-1.716-.44-2.519-1.265-.803-.825-.803-2.145 0-1.804 1.331-2.805 1.331-1.001 3.707-1.001 1.936 0 3.674.77v2.684q-1.826-.726-3.344-.726-1.584 0-1.584.88 0 .286.187.44.187.154.781.33l1.474.396q1.562.418 2.31 1.276.748.858.748 2.244 0 3.806-5.324 3.806-2.244 0-3.718-.704zm14.74.352h-3.828V4.716l3.828-.352v5.874q.572-.33 1.298-.528.726-.198 1.342-.198 1.958 0 3.003 1.023 1.045 1.023 1.045 2.937v7.788h-3.828v-7.304q0-.792-.33-1.166-.33-.374-1.034-.374-.418 0-.825.11t-.671.286v8.448zm18.348-16.896v5.786q1.298-.638 2.618-.638 2.156 0 3.388 1.562 1.232 1.562 1.232 4.29 0 3.08-1.606 4.664-1.606 1.584-4.73 1.584-.946 0-2.266-.132t-2.464-.352V4.716l3.828-.352zm1.452 8.052q-.33 0-.748.11t-.704.286v5.984q.572.088.968.088 1.166 0 1.716-.847t.55-2.585q0-1.562-.429-2.299-.429-.737-1.353-.737zM267.3 21.04l-3.036.286-.198-.682q-1.628.968-3.3.968-1.804 0-2.871-.99t-1.067-2.684q0-1.738 1.177-2.717 1.177-.979 3.289-.979.946 0 2.222.198v-.594q0-.792-.506-1.166-.506-.374-1.584-.374-1.518 0-3.74.748v-2.728q.99-.374 2.178-.594 1.188-.22 2.266-.22 2.464 0 3.817 1.1 1.353 1.1 1.353 3.102v7.326zm-5.28-2.024q.836 0 1.496-.396v-2.002q-.638-.176-1.232-.176-.836 0-1.265.341-.429.341-.429.979 0 .594.374.924.374.33 1.056.33zm16.5-.924v2.728q-1.716.792-3.63.792-2.794 0-4.257-1.54-1.463-1.54-1.463-4.466 0-2.948 1.474-4.521t4.268-1.573q1.804 0 3.52.792v2.728q-1.606-.594-2.728-.594-2.53 0-2.53 3.124t2.53 3.124q1.188 0 2.816-.594zm5.698 3.168h-3.828V4.716l3.828-.352v10.01l3.212-4.51h4.246l-3.96 5.236 4.4 6.16h-4.4l-3.498-5.324v5.324zM303.71 19.962q1.54 0 2.233-1.012.693-1.012.693-3.278t-.693-3.278q-.693-1.012-2.233-1.012t-2.233 1.012q-.693 1.012-.693 3.278t.693 3.278q.693 1.012 2.233 1.012zm0 1.628q-2.508 0-3.795-1.507t-1.287-4.411q0-2.904 1.287-4.411 1.287-1.507 3.795-1.507t3.795 1.507q1.287 1.507 1.287 4.411t-1.287 4.411q-1.287 1.507-3.795 1.507zm16.984-.33h-2.068v-7.524q0-2.354-2.332-2.354-.616 0-1.375.209t-1.375.561v9.108h-2.068V10.216l1.672-.176.132.77q1.804-1.056 3.586-1.056 1.826 0 2.827.957t1.001 2.717v7.832zM9.988 45.68v1.562q-1.518.748-3.388.748-2.728 0-4.158-1.518-1.43-1.518-1.43-4.444 0-1.804.638-3.135.638-1.331 1.782-2.035 1.144-.704 2.618-.704 2.068 0 3.256 1.232 1.188 1.232 1.188 3.41 0 .858-.154 1.694H3.058q.066 3.894 3.784 3.894 1.606 0 3.146-.704zM6.05 37.672q-1.276 0-2.079.902-.803.902-.913 2.442H8.58q.022-.11.022-.22v-.22q0-1.364-.671-2.134-.671-.77-1.881-.77zm11.726 9.988h-1.98l-4.158-11.176h2.2l2.992 8.91 3.036-8.91h2.112L17.776 47.66zm14.102-1.98v1.562q-1.518.748-3.388.748-2.728 0-4.158-1.518-1.43-1.518-1.43-4.444 0-1.804.638-3.135.638-1.331 1.782-2.035 1.144-.704 2.618-.704 2.068 0 3.256 1.232 1.188 1.232 1.188 3.41 0 .858-.154 1.694h-7.282q.066 3.894 3.784 3.894 1.606 0 3.146-.704zm-3.938-8.008q-1.276 0-2.079.902-.803.902-.913 2.442h5.522q.022-.11.022-.22v-.22q0-1.364-.671-2.134-.671-.77-1.881-.77zm9.196 9.988h-2.068V36.616l1.672-.176.176 1.012q1.452-1.232 3.102-1.232.506 0 1.012.154v1.694q-.528-.132-1.078-.132-1.584 0-2.816.99v8.734zm5.676 5.016l-.484-1.804q1.056-.176 1.749-.506.693-.33 1.221-.946.528-.616 1.012-1.65l-4.202-11.286h2.2l3.014 8.954 3.014-8.954h2.112L48.4 47.242q-.66 1.76-1.364 2.827-.704 1.067-1.672 1.672t-2.552.935zm19.008-21.78v6.138q1.65-.88 3.102-.88 2.156 0 3.377 1.529 1.221 1.529 1.221 4.213 0 2.948-1.496 4.521t-4.268 1.573q-1.98 0-4.004-.572v-16.28l2.068-.242zm2.618 6.886q-.594 0-1.309.209t-1.309.561v7.568q.924.264 1.958.264 1.804 0 2.695-1.1.891-1.1.891-3.344 0-2.046-.737-3.102t-2.189-1.056zm16.786 9.746l-1.672.176-.132-.77q-1.804 1.056-3.586 1.056-1.782 0-2.772-.968-.99-.968-.99-2.706v-7.832h2.068v7.524q0 2.354 2.266 2.354.638 0 1.386-.209.748-.209 1.364-.561v-9.108h2.068v11.044zm2.816-.22l-.242-1.694q1.76.77 3.52.77 1.276 0 1.947-.484t.671-1.386q0-.594-.374-.968t-1.232-.638l-1.496-.462q-1.496-.462-2.178-1.188-.682-.726-.682-1.848 0-1.496 1.166-2.376 1.166-.88 3.146-.88 1.672 0 3.19.66v1.584q-1.672-.638-3.058-.638-1.122 0-1.749.429t-.627 1.155q0 .528.33.825.33.297 1.232.583l1.672.506q2.728.814 2.728 3.234 0 1.694-1.166 2.596-1.166.902-3.366.902-2.046 0-3.432-.682zm12.606.352h-2.068v-11l2.068-.242V47.66zm-1.034-13.464q-.638 0-1.001-.341-.363-.341-.363-.935 0-.594.363-.935.363-.341 1.001-.341.638 0 1.001.341.363.341.363.935 0 .594-.363.935-.363.341-1.001.341zm13.596 13.464h-2.068v-7.524q0-2.354-2.332-2.354-.616 0-1.375.209t-1.375.561v9.108H99.99V36.616l1.672-.176.132.77q1.804-1.056 3.586-1.056 1.826 0 2.827.957t1.001 2.717v7.832zm11.528-1.98v1.562q-1.518.748-3.388.748-2.728 0-4.158-1.518-1.43-1.518-1.43-4.444 0-1.804.638-3.135.638-1.331 1.782-2.035 1.144-.704 2.618-.704 2.068 0 3.256 1.232 1.188 1.232 1.188 3.41 0 .858-.154 1.694h-7.282q.066 3.894 3.784 3.894 1.606 0 3.146-.704zm-3.938-8.008q-1.276 0-2.079.902-.803.902-.913 2.442h5.522q.022-.11.022-.22v-.22q0-1.364-.671-2.134-.671-.77-1.881-.77zm6.6 9.636l-.242-1.694q1.76.77 3.52.77 1.276 0 1.947-.484t.671-1.386q0-.594-.374-.968t-1.232-.638l-1.496-.462q-1.496-.462-2.178-1.188-.682-.726-.682-1.848 0-1.496 1.166-2.376 1.166-.88 3.146-.88 1.672 0 3.19.66v1.584q-1.672-.638-3.058-.638-1.122 0-1.749.429t-.627 1.155q0 .528.33.825.33.297 1.232.583l1.672.506q2.728.814 2.728 3.234 0 1.694-1.166 2.596-1.166.902-3.366.902-2.046 0-3.432-.682zm10.01 0l-.242-1.694q1.76.77 3.52.77 1.276 0 1.947-.484t.671-1.386q0-.594-.374-.968t-1.232-.638l-1.496-.462q-1.496-.462-2.178-1.188-.682-.726-.682-1.848 0-1.496 1.166-2.376 1.166-.88 3.146-.88 1.672 0 3.19.66v1.584q-1.672-.638-3.058-.638-1.122 0-1.749.429t-.627 1.155q0 .528.33.825.33.297 1.232.583l1.672.506q2.728.814 2.728 3.234 0 1.694-1.166 2.596-1.166.902-3.366.902-2.046 0-3.432-.682zm18.106 5.082l-2.068.242V36.616l1.672-.176.132.77q1.738-1.056 3.366-1.056 2.156 0 3.377 1.529 1.221 1.529 1.221 4.213 0 2.904-1.43 4.499-1.43 1.595-4.026 1.595-1.254 0-2.244-.308v4.708zm2.618-14.608q-.594 0-1.309.209t-1.309.561v7.568q.924.264 1.958.264 1.804 0 2.695-1.1.891-1.1.891-3.344 0-2.046-.737-3.102t-2.189-1.056zm16.786 9.746l-1.672.176-.132-.77q-1.804 1.056-3.586 1.056-1.782 0-2.772-.968-.99-.968-.99-2.706v-7.832h2.068v7.524q0 2.354 2.266 2.354.638 0 1.386-.209.748-.209 1.364-.561v-9.108h2.068v11.044zm5.412.132h-2.068V36.616l1.672-.176.176 1.012q1.452-1.232 3.102-1.232.506 0 1.012.154v1.694q-.528-.132-1.078-.132-1.584 0-2.816.99v8.734zm13.508-1.98v1.584q-1.518.726-3.366.726-2.42 0-3.74-1.54-1.32-1.54-1.32-4.356 0-2.838 1.331-4.389 1.331-1.551 3.751-1.551 1.694 0 3.278.726v1.584q-1.518-.66-2.904-.66-1.628 0-2.464 1.078-.836 1.078-.836 3.19 0 2.09.836 3.179t2.464 1.089q1.386 0 2.97-.66zm4.62 1.98h-2.068V31.138l2.068-.242v6.16q1.694-.902 3.322-.902 1.826 0 2.827.957t1.001 2.717v7.832h-2.068v-7.524q0-2.354-2.332-2.354-.616 0-1.375.209t-1.375.561v9.108zm18.92-.132l-1.672.176-.132-.77q-1.848 1.056-3.586 1.056-1.738 0-2.761-.935-1.023-.935-1.023-2.519 0-1.65 1.144-2.563 1.144-.913 3.212-.913 1.21 0 2.794.286V40.18q0-1.21-.693-1.804-.693-.594-2.123-.594-1.672 0-3.652.77v-1.606q.924-.374 2.002-.583 1.078-.209 2.046-.209 2.178 0 3.311 1.012t1.133 2.97v7.392zm-4.862-1.144q.638 0 1.43-.22.792-.22 1.408-.572v-2.816q-1.034-.264-2.442-.264-1.32 0-1.947.495t-.627 1.485q0 1.892 2.178 1.892zm7.546.924l-.242-1.694q1.76.77 3.52.77 1.276 0 1.947-.484t.671-1.386q0-.594-.374-.968t-1.232-.638l-1.496-.462q-1.496-.462-2.178-1.188-.682-.726-.682-1.848 0-1.496 1.166-2.376 1.166-.88 3.146-.88 1.672 0 3.19.66v1.584q-1.672-.638-3.058-.638-1.122 0-1.749.429t-.627 1.155q0 .528.33.825.33.297 1.232.583l1.672.506q2.728.814 2.728 3.234 0 1.694-1.166 2.596-1.166.902-3.366.902-2.046 0-3.432-.682zm18.854-1.628v1.562q-1.518.748-3.388.748-2.728 0-4.158-1.518-1.43-1.518-1.43-4.444 0-1.804.638-3.135.638-1.331 1.782-2.035 1.144-.704 2.618-.704 2.068 0 3.256 1.232 1.188 1.232 1.188 3.41 0 .858-.154 1.694h-7.282q.066 3.894 3.784 3.894 1.606 0 3.146-.704zm-3.938-8.008q-1.276 0-2.079.902-.803.902-.913 2.442h5.522q.022-.11.022-.22v-.22q0-1.364-.671-2.134-.671-.77-1.881-.77zm7.942 10.098q-.594 0-.968-.374t-.374-.968q0-.594.374-.968t.968-.374q.594 0 .968.374t.374.968q0 .594-.374.968t-.968.374z" fill="#fff"/></svg>