<svg width="221.88" height="48" viewBox="0 0 221.88 48" xmlns="http://www.w3.org/2000/svg"><path d="M2.353 12.86H1.126V4.004h1.227v8.856zm5.339-5.566H5.895v3.694q0 .569.253.84.253.273.772.273.392 0 .835-.14v.848q-.531.203-1.1.203-.962 0-1.455-.506-.494-.506-.494-1.48V7.294h-.961v-.81l1.012-.038.088-1.607 1.05-.114v1.708h1.797v.86zm1.037.075l-.341-.227q.392-.443.632-.968.24-.525.253-.993-.253-.063-.398-.26-.146-.196-.146-.461 0-.33.222-.544.221-.215.55-.215.342 0 .55.253.209.253.209.695 0 .456-.215.98-.215.526-.563.981-.348.456-.753.76zm2.467 5.289l-.139-.975q1.012.443 2.024.443.734 0 1.12-.278.386-.278.386-.797 0-.342-.215-.557-.215-.215-.709-.367l-.86-.265q-.86-.266-1.253-.683-.392-.418-.392-1.063 0-.86.67-1.366.671-.507 1.81-.507.961 0 1.834.38v.91q-.961-.366-1.758-.366-.645 0-1.006.247-.36.246-.36.664 0 .304.19.474.189.171.708.336l.961.29q1.569.469 1.569 1.86 0 .974-.67 1.493-.671.519-1.936.519-1.177 0-1.974-.392zm8.92 0l-.14-.975q1.012.443 2.024.443.734 0 1.12-.278.386-.278.386-.797 0-.342-.215-.557-.215-.215-.709-.367l-.86-.265q-.86-.266-1.253-.683-.392-.418-.392-1.063 0-.86.67-1.366.671-.507 1.81-.507.961 0 1.834.38v.91q-.961-.366-1.758-.366-.645 0-1.006.247-.36.246-.36.664 0 .304.19.474.189.171.708.336l.961.29q1.569.469 1.569 1.86 0 .974-.67 1.493-.671.519-1.936.519-1.177 0-1.974-.392zm7.248.202h-1.189V6.534l1.19-.139v6.465zm-.594-7.742q-.367 0-.576-.197-.209-.196-.209-.537 0-.342.21-.538.208-.196.575-.196t.575.196q.21.196.21.538 0 .341-.21.537-.208.197-.575.197zm11.297 7.742h-1.19V8.394q0-1.214-1.176-1.214-.708 0-1.492.468.063.278.063.556v4.656h-1.19V8.394q0-1.214-1.176-1.214-.696 0-1.43.442v5.238h-1.189V6.51l.962-.102.076.443q.974-.608 1.91-.608 1.088 0 1.645.696 1.138-.696 2.15-.696.95 0 1.493.52.544.518.544 1.441v4.656zm3.036 2.72l-1.189.14V6.51l.962-.102.076.443q.999-.608 1.935-.608 1.24 0 1.942.88.702.879.702 2.422 0 1.67-.822 2.588-.822.917-2.315.917-.721 0-1.29-.177v2.707zm1.506-8.4q-.342 0-.753.12t-.753.322v4.352q.532.152 1.126.152 1.038 0 1.55-.632.512-.633.512-1.923 0-1.177-.423-1.784-.424-.607-1.26-.607zm5.655 5.68h-1.19V3.359l1.19-.14v9.641zm6.705-1.139v.899q-.873.43-1.948.43-1.57 0-2.391-.873-.823-.873-.823-2.556 0-1.037.367-1.802.367-.766 1.025-1.17.658-.406 1.505-.406 1.19 0 1.873.709.683.708.683 1.96 0 .494-.089.975h-4.187q.038 2.24 2.176 2.24.923 0 1.809-.406zm-2.265-4.605q-.733 0-1.195.52-.462.518-.525 1.403h3.175q.013-.063.013-.126v-.127q0-.784-.386-1.227-.386-.443-1.082-.443zm4.567 5.807q-.341 0-.556-.215-.215-.215-.215-.556 0-.342.215-.557.215-.215.556-.215.342 0 .557.215.215.215.215.557 0 .341-.215.556-.215.215-.557.215zm6.946-.063H62.99V4.004h1.227v8.856zm5.339-5.566h-1.797v3.694q0 .569.253.84.253.273.772.273.392 0 .835-.14v.848q-.531.203-1.1.203-.962 0-1.456-.506-.493-.506-.493-1.48V7.294h-.961v-.81l1.012-.038.088-1.607 1.05-.114v1.708h1.797v.86zm1.037.075l-.342-.227q.393-.443.633-.968.24-.525.253-.993-.253-.063-.398-.26-.146-.196-.146-.461 0-.33.221-.544.222-.215.55-.215.342 0 .551.253.209.253.209.695 0 .456-.215.98-.215.526-.563.981-.348.456-.753.76zm2.467 5.289l-.14-.975q1.013.443 2.025.443.734 0 1.12-.278.385-.278.385-.797 0-.342-.215-.557-.215-.215-.708-.367l-.86-.265q-.86-.266-1.253-.683-.392-.418-.392-1.063 0-.86.67-1.366.671-.507 1.81-.507.961 0 1.834.38v.91q-.961-.366-1.758-.366-.646 0-1.006.247-.36.246-.36.664 0 .304.189.474.19.171.708.336l.962.29q1.569.469 1.569 1.86 0 .974-.67 1.493-.671.519-1.936.519-1.177 0-1.974-.392zm8.919 0l-.14-.975q1.013.443 2.025.443.734 0 1.12-.278.385-.278.385-.797 0-.342-.215-.557-.215-.215-.708-.367l-.86-.265q-.86-.266-1.253-.683-.392-.418-.392-1.063 0-.86.67-1.366.671-.507 1.81-.507.961 0 1.834.38v.91q-.961-.366-1.758-.366-.646 0-1.006.247-.36.246-.36.664 0 .304.189.474.19.171.708.336l.962.29q1.569.469 1.569 1.86 0 .974-.67 1.493-.671.519-1.936.519-1.177 0-1.974-.392zm9.311-5.364h-1.796v3.694q0 .569.253.84.253.273.771.273.393 0 .835-.14v.848q-.53.203-1.1.203-.962 0-1.455-.506-.493-.506-.493-1.48V7.294h-.962v-.81l1.012-.038.089-1.607 1.05-.114v1.708h1.796v.86zm2.518 5.566h-1.19V6.51l.962-.102.101.582q.835-.709 1.784-.709.291 0 .582.089v.974q-.304-.076-.62-.076-.91 0-1.62.57v5.022zm8.223-.076l-.962.101-.075-.442q-1.063.607-2.063.607-.999 0-1.587-.538-.589-.538-.589-1.448 0-.95.658-1.474.658-.525 1.847-.525.696 0 1.607.164v-.67q0-.696-.398-1.038-.399-.341-1.221-.341-.962 0-2.1.442V6.7q.531-.215 1.15-.335.62-.12 1.177-.12 1.253 0 1.904.581.652.582.652 1.708v4.251zm-2.796-.658q.367 0 .822-.126.456-.127.81-.33v-1.619q-.595-.151-1.404-.151-.76 0-1.12.284-.36.285-.36.854 0 1.088 1.252 1.088zm5.832.734h-1.189V6.534l1.19-.139v6.465zm-.594-7.742q-.367 0-.576-.197-.209-.196-.209-.537 0-.342.209-.538t.576-.196q.367 0 .575.196.209.196.209.538 0 .341-.209.537-.208.197-.575.197zm4.731 10.728q-1.19 0-1.986-.405l-.14-.974q1.013.442 2.025.442 1.936 0 1.936-1.745v-.734q-.95.506-1.784.506-1.24 0-1.942-.848-.702-.847-.702-2.34 0-1.695.86-2.6t2.454-.905q.506 0 1.12.12.613.12 1.183.323v6.326q0 1.366-.785 2.1-.784.734-2.239.734zm.33-3.846q.34 0 .752-.12.411-.12.753-.323V7.319q-.532-.152-1.126-.152-1.038 0-1.55.633-.513.632-.513 1.923 0 1.125.424 1.701.424.576 1.26.576zm5.806.86h-1.19V3.359l1.19-.14v3.543q.974-.519 1.91-.519 1.05 0 1.626.55.576.551.576 1.563v4.504h-1.19V8.533q0-1.353-1.34-1.353-.355 0-.791.12-.437.12-.791.322v5.238zm9.21-5.566h-1.797v3.694q0 .569.253.84.253.273.772.273.392 0 .835-.14v.848q-.531.203-1.1.203-.962 0-1.455-.506-.494-.506-.494-1.48V7.294h-.961v-.81l1.012-.038.088-1.607 1.05-.114v1.708h1.797v.86zm2.783 5.566h-1.19V7.294h-.96v-.81l.96-.038V5.193q0-.999.52-1.55.518-.55 1.48-.55.556 0 1.138.203v.847q-.518-.139-.885-.139-1.063 0-1.063 1.126v1.303h1.632v.86h-1.632v5.567zm5.377-.746q.885 0 1.284-.582.398-.582.398-1.885t-.398-1.885q-.399-.582-1.284-.582-.886 0-1.284.582-.399.582-.399 1.885t.399 1.885q.398.582 1.284.582zm0 .936q-1.442 0-2.182-.867-.74-.866-.74-2.536t.74-2.537q.74-.867 2.182-.867t2.182.867q.74.867.74 2.537t-.74 2.536q-.74.867-2.182.867zm5.655-.19h-1.19V6.51l.962-.102.101.582q.835-.709 1.784-.709.291 0 .582.089v.974q-.304-.076-.62-.076-.91 0-1.62.57v5.022zm10.045 0h-1.088l-1.506-5.174-1.455 5.174h-1.088l-2.011-6.427h1.202l1.379 4.985 1.366-4.985h1.253l1.391 4.985 1.366-4.985h1.164l-1.973 6.427zm7.97-.076l-.961.101-.076-.442q-1.063.607-2.063.607-.999 0-1.587-.538t-.588-1.448q0-.95.657-1.474.658-.525 1.847-.525.696 0 1.607.164v-.67q0-.696-.398-1.038-.399-.341-1.221-.341-.962 0-2.1.442V6.7q.531-.215 1.15-.335.62-.12 1.177-.12 1.253 0 1.904.581.652.582.652 1.708v4.251zm-2.796-.658q.367 0 .822-.126.456-.127.81-.33v-1.619q-.594-.151-1.404-.151-.76 0-1.12.284-.36.285-.36.854 0 1.088 1.252 1.088zm5.832.734h-1.189V6.51l.962-.102.1.582q.836-.709 1.785-.709.29 0 .582.089v.974q-.304-.076-.62-.076-.911 0-1.62.57v5.022zm7.35-9.501l1.19-.14v9.565l-.962.101-.076-.442q-1 .607-1.935.607-1.24 0-1.942-.88-.702-.879-.702-2.422 0-1.67.822-2.587.822-.918 2.315-.918.721 0 1.29.178V3.359zm-1.505 8.755q.342 0 .753-.12t.753-.323V7.319q-.532-.152-1.126-.152-1.038 0-1.55.633-.513.632-.513 1.923 0 1.176.424 1.783.424.608 1.26.608zm5.086.81q-.342 0-.557-.216-.215-.215-.215-.556 0-.342.215-.557.215-.215.557-.215.341 0 .556.215.216.215.216.557 0 .341-.216.556-.215.215-.556.215zM3.163 29.31H.823v-8.856h2.34v8.856zm5.781-5.035h-1.53v2.846q0 .785.759.785.329 0 .784-.14v1.455q-.645.291-1.43.291-1.126 0-1.72-.575-.595-.576-.595-1.676v-2.986h-.961v-1.442l1.062-.038.14-1.658 1.96-.202v1.822h1.531v1.518zm1.177.594l-.494-.328q.507-.481.816-1.076.31-.594.348-1.138-.43-.089-.683-.405-.253-.317-.253-.747 0-.493.36-.835.361-.341.88-.341.57 0 .905.392.335.392.335 1.05t-.316 1.354q-.317.696-.823 1.246t-1.075.828zm2.935 4.239l-.228-1.645q.443.215 1.038.348.594.133 1.126.133.518 0 .803-.152.285-.152.285-.443 0-.177-.146-.29-.145-.115-.462-.19l-.645-.165q-.987-.253-1.448-.728-.462-.474-.462-1.233 0-1.037.765-1.613.766-.576 2.132-.576 1.113 0 2.113.443v1.544q-1.05-.418-1.923-.418-.911 0-.911.506 0 .165.107.253.108.089.45.19l.847.228q.898.24 1.328.733.43.494.43 1.29 0 2.19-3.061 2.19-1.29 0-2.138-.405zm9.336-.14l-.265-1.847q.594.291 1.277.456.684.164 1.316.164.734 0 1.139-.272t.405-.765q0-.33-.215-.525-.215-.196-.747-.36l-.696-.216q-1.265-.392-1.84-1.006-.576-.613-.576-1.562 0-1.303.93-2.043.93-.74 2.562-.74 1.391 0 2.618.57v1.707q-1.303-.531-2.365-.531-.633 0-.98.227-.349.228-.349.658 0 .291.165.443.164.152.72.342l.697.227q1.315.43 1.904 1.095.588.664.588 1.714 0 1.366-.943 2.087-.942.721-2.726.721-1.518 0-2.619-.544zm9.514 3.075l-2.201.202v-9.362l1.746-.164.113.392q.886-.557 1.848-.557 1.24 0 1.948.899.708.898.708 2.467 0 1.72-.828 2.656-.83.936-2.36.936-.506 0-.974-.1v2.63zm.835-7.819q-.19 0-.43.064-.24.063-.405.164v3.441q.329.05.557.05.67 0 .986-.486.317-.487.317-1.487 0-.898-.247-1.322-.247-.424-.778-.424zm10.159 4.96l-1.746.164-.114-.392q-.936.556-1.898.556-1.037 0-1.65-.569-.614-.57-.614-1.543 0-1 .677-1.563t1.891-.563q.544 0 1.278.114v-.341q0-.456-.291-.67-.291-.216-.911-.216-.873 0-2.15.43v-1.569q.569-.215 1.252-.341.683-.127 1.303-.127 1.417 0 2.195.633.778.632.778 1.784v4.212zm-3.036-1.164q.48 0 .86-.228V26.64q-.367-.102-.709-.102-.48 0-.727.197-.247.196-.247.562 0 .342.215.532t.608.19zm6.578 1.29h-2.201v-6.427l1.746-.164.177.594q.784-.72 1.72-.72.304 0 .696.088v1.796q-.405-.088-.734-.088-.404 0-.784.107-.38.108-.62.298v4.516zm5.225 0h-2.201v-9.514l2.201-.202v5.756l1.847-2.593h2.442l-2.277 3.01 2.53 3.543h-2.53l-2.012-3.062v3.062zm18.028-2.176v1.784q-1.151.594-2.594.594-1.96 0-3.004-1.195-1.044-1.196-1.044-3.435 0-2.201 1.063-3.416 1.062-1.214 2.985-1.214 1.405 0 2.543.594v1.784q-.645-.303-1.1-.417-.456-.114-1-.114-.974 0-1.474.702t-.5 2.081q0 1.38.5 2.081.5.702 1.474.702.519 0 1.012-.12.494-.12 1.139-.411zm6.857 2.05l-1.746.164-.114-.392q-.936.556-1.898.556-1.037 0-1.65-.569-.614-.57-.614-1.543 0-1 .677-1.563.676-.563 1.89-.563.545 0 1.279.114v-.341q0-.456-.291-.67-.291-.216-.911-.216-.873 0-2.15.43v-1.569q.568-.215 1.252-.341.683-.127 1.303-.127 1.417 0 2.195.633.778.632.778 1.784v4.212zm-3.037-1.164q.481 0 .86-.228V26.64q-.366-.102-.708-.102-.48 0-.727.197-.247.196-.247.562 0 .342.215.532t.607.19zm4.29 1.088l-.229-1.645q.443.215 1.038.348.594.133 1.126.133.518 0 .803-.152.285-.152.285-.443 0-.177-.146-.29-.145-.115-.461-.19l-.646-.165q-.986-.253-1.448-.728-.462-.474-.462-1.233 0-1.037.765-1.613.766-.576 2.132-.576 1.113 0 2.113.443v1.544q-1.05-.418-1.923-.418-.911 0-.911.506 0 .165.108.253.107.089.449.19l.847.228q.898.24 1.329.733.43.494.43 1.29 0 2.19-3.062 2.19-1.29 0-2.138-.405zm8.475.202h-2.2v-9.514l2.2-.202v3.378q.33-.19.747-.304.417-.114.771-.114 1.126 0 1.727.589.601.588.601 1.689v4.478h-2.201v-4.2q0-.456-.19-.67-.19-.216-.594-.216-.24 0-.475.064-.234.063-.386.164v4.858zm11.083 0H95.16v-5.035H94.2v-1.442l.961-.038v-.835q0-1.152.658-1.822.658-.67 1.771-.67.86 0 1.544.303v1.455q-.544-.152-.936-.152t-.614.215q-.221.215-.221.607v.86h1.455v1.519h-1.455v5.035zm4.719 0H99.88v-6.427l1.746-.164.177.594q.785-.72 1.72-.72.304 0 .697.088v1.796q-.405-.088-.734-.088-.405 0-.785.107-.38.108-.62.298v4.516zm6.009-1.468q.519 0 .734-.404.215-.405.215-1.405t-.215-1.404q-.215-.405-.734-.405t-.734.405q-.215.405-.215 1.404 0 1 .215 1.405.215.404.734.404zm0 1.67q-1.582 0-2.417-.891-.834-.892-.834-2.588 0-1.695.834-2.587.835-.892 2.417-.892 1.581 0 2.416.892t.835 2.587q0 1.696-.835 2.588-.835.891-2.416.891zm11.221-5.288q-.227 0-.474.064-.247.063-.411.177.012.088.019.183.006.095.006.184v4.478h-2.201v-4.2q0-.886-.721-.886-.228 0-.462.064-.234.063-.399.164v4.858h-2.2v-6.427l1.745-.164.114.392q.43-.266.917-.411.487-.146.943-.146 1.138 0 1.707.633 1.05-.633 2.075-.633 1.088 0 1.676.595.589.595.589 1.683v4.478h-2.202v-4.2q0-.886-.72-.886zm13.891 2.91v1.784q-1.151.594-2.593.594-1.961 0-3.005-1.195-1.044-1.196-1.044-3.435 0-2.201 1.063-3.416 1.063-1.214 2.986-1.214 1.404 0 2.543.594v1.784q-.646-.303-1.101-.417-.455-.114-1-.114-.974 0-1.473.702-.5.702-.5 2.081 0 1.38.5 2.081.5.702 1.474.702.518 0 1.012-.12.493-.12 1.138-.411zm6.857 2.05l-1.746.164-.114-.392q-.936.556-1.897.556-1.038 0-1.651-.569-.614-.57-.614-1.543 0-1 .677-1.563t1.891-.563q.544 0 1.278.114v-.341q0-.456-.29-.67-.292-.216-.912-.216-.873 0-2.15.43v-1.569q.569-.215 1.252-.341.683-.127 1.303-.127 1.417 0 2.195.633.778.632.778 1.784v4.212zm-3.036-1.164q.48 0 .86-.228V26.64q-.367-.102-.708-.102-.481 0-.728.197-.246.196-.246.562 0 .342.215.532t.607.19zm6.578 4.023l-2.2.202v-9.362l1.745-.164.114.392q.885-.557 1.847-.557 1.24 0 1.948.899.709.898.709 2.467 0 1.72-.829 2.656-.829.936-2.36.936-.505 0-.974-.1v2.63zm.835-7.819q-.19 0-.43.064-.24.063-.405.164v3.441q.33.05.557.05.67 0 .987-.486.316-.487.316-1.487 0-.898-.247-1.322-.246-.424-.778-.424zm6.655 5.086h-2.201v-6.389l2.2-.202v6.591zm-1.1-7.312q-.595 0-.924-.304-.33-.304-.33-.848t.33-.847q.329-.304.923-.304.595 0 .924.304.329.303.329.847t-.33.848q-.328.304-.923.304zm6.755 2.277h-1.53v2.846q0 .785.758.785.33 0 .785-.14v1.455q-.646.291-1.43.291-1.126 0-1.72-.575-.595-.576-.595-1.676v-2.986h-.962v-1.442l1.063-.038.14-1.658 1.96-.202v1.822h1.53v1.518zm6.768 4.908l-1.746.165-.113-.392q-.937.556-1.898.556-1.038 0-1.651-.569-.614-.57-.614-1.543 0-1 .677-1.563t1.891-.563q.544 0 1.278.114v-.341q0-.456-.29-.67-.292-.216-.912-.216-.873 0-2.15.43v-1.569q.569-.215 1.252-.341.683-.127 1.303-.127 1.417 0 2.195.633.778.632.778 1.784v4.212zm-3.036-1.163q.48 0 .86-.228V26.64q-.367-.102-.708-.102-.481 0-.728.197-.246.196-.246.562 0 .342.215.532t.607.19zm6.579 1.29h-2.202v-9.514l2.202-.202v9.716zm8.501-1.62q.86 0 1.246-.664t.386-2.144q0-1.48-.386-2.144-.386-.664-1.246-.664t-1.246.664q-.386.664-.386 2.144t.386 2.144q.386.665 1.246.665zm0 1.822q-2.037 0-3.08-1.17-1.044-1.17-1.044-3.46t1.044-3.46q1.043-1.17 3.08-1.17t3.08 1.17q1.044 1.17 1.044 3.46t-1.043 3.46q-1.044 1.17-3.081 1.17zm11.386-.202h-2.201v-4.2q0-.456-.19-.67-.19-.216-.595-.216-.24 0-.474.064-.234.063-.386.164v4.858h-2.201v-6.427l1.746-.164.114.392q.442-.266.923-.411.48-.146.936-.146 1.126 0 1.727.589.601.588.601 1.689v4.478zm6.882-1.822v1.569q-.961.455-2.138.455-1.796 0-2.732-.891-.937-.892-.937-2.588 0-1.05.424-1.84.424-.791 1.164-1.215.74-.424 1.689-.424 1.316 0 2.081.74.765.74.765 2.018 0 .468-.126 1.227h-3.795q.063.709.487 1.038.424.329 1.271.329.936 0 1.847-.418zm-2.53-3.454q-.493 0-.784.348-.291.348-.304.943h1.999v-.253q0-1.038-.911-1.038zm8.21 5.352q-.53 0-.885-.354-.354-.355-.354-.886t.354-.885q.354-.355.886-.355.53 0 .885.355.354.354.354.885t-.354.886q-.354.354-.885.354z" fill="#fff"/></svg>