<?xml version="1.0" encoding="UTF-8"?>
<svg width="205px" height="25px" viewBox="0 0 205 25" version="1.1" xmlns="http://www.w3.org/2000/svg" xmlns:xlink="http://www.w3.org/1999/xlink">
    <title>Buildasmarter</title>
    <g id="Real-Estate" stroke="none" stroke-width="1" fill="none" fill-rule="evenodd">
        <g id="Real-Estate-/-MiQ-Display_Real-Estate-2_300x600_Black" transform="translate(-28.000000, -101.000000)" fill="#FFFFFF" fill-rule="nonzero">
            <path d="M40.256,125.363666 C44.48,125.363666 47.904,123.123666 47.904,119.091666 C47.904,115.315666 44.896,113.459666 41.664,113.267666 C44.032,112.883666 46.624,111.283666 46.624,108.083666 C46.624,104.531666 43.36,102.963666 39.488,102.963666 L28.576,102.963666 L28.576,103.507666 L29.056,103.571666 C30.176,103.731666 30.976,104.051666 30.976,105.363666 L30.976,122.963666 C30.976,124.216029 30.2470744,124.477054 29.2066987,124.693018 L28.576,124.819666 L28.576,125.363666 L40.256,125.363666 Z M38.368,112.947666 L36.16,112.947666 L36.16,103.891666 L38.016,103.891666 C40.192,103.891666 41.728,104.947666 41.728,108.531666 C41.728,111.699666 40.48,112.947666 38.368,112.947666 Z M39.104,124.435666 L38.048,124.435666 C37.056,124.435666 36.16,123.955666 36.16,122.803666 L36.16,113.875666 L38.56,113.875666 C40.96,113.875666 42.624,115.251666 42.624,119.251666 C42.624,122.515666 41.696,124.435666 39.104,124.435666 Z M54.6637838,125.747666 C57.0317838,125.747666 58.5357838,124.563666 59.3677838,123.283666 C59.5597838,124.403666 59.9117838,125.171666 60.3917838,125.651666 L65.9277838,124.595666 L65.9277838,124.115666 C64.3917838,123.923666 64.0717838,123.059666 64.0717838,121.619666 L64.0717838,109.651666 L63.8157838,109.651666 L57.3517838,110.771666 L57.3517838,111.251666 C58.9517838,111.443666 59.2077838,112.083666 59.2077838,113.203666 L59.2077838,121.331666 C59.2077838,121.843666 59.2397838,122.323666 59.2717838,122.771666 C58.7917838,123.315666 58.0877838,123.603666 57.3197838,123.603666 C55.7517838,123.603666 54.9837838,122.483666 54.9837838,120.723666 L54.9837838,109.651666 L54.7277838,109.651666 L48.2637838,110.771666 L48.2637838,111.251666 C49.8637838,111.443666 50.1197838,112.083666 50.1197838,113.203666 L50.1197838,120.979666 C50.1197838,123.379666 51.3997838,125.747666 54.6637838,125.747666 Z M70.7675675,108.435666 C72.1435675,108.435666 73.2315675,107.347666 73.2315675,106.067666 C73.2315675,104.819666 72.1435675,103.699666 70.7675675,103.699666 C69.3595675,103.699666 68.3035675,104.819666 68.3035675,106.067666 C68.3035675,107.347666 69.3595675,108.435666 70.7675675,108.435666 Z M74.9915675,125.363666 L74.9915675,124.883666 L74.6395675,124.819666 C73.6475675,124.627666 73.1995675,124.275666 73.1995675,123.027666 L73.1995675,109.651666 L72.9435675,109.651666 L66.5435675,111.027666 L66.5435675,111.475666 C67.9515675,111.635666 68.3355675,112.243666 68.3355675,113.459666 L68.3355675,123.027666 C68.3355675,124.275666 67.8875675,124.627666 66.8955675,124.819666 L66.5435675,124.883666 L66.5435675,125.363666 L74.9915675,125.363666 Z M83.8633513,125.363666 L83.8633513,124.883666 L83.5113513,124.819666 C82.5193513,124.627666 82.0713513,124.275666 82.0713513,123.027666 L82.0713513,101.907666 L81.8153513,101.907666 L75.4153513,103.283666 L75.4153513,103.731666 C76.8233513,103.891666 77.2073513,104.499666 77.2073513,105.715666 L77.2073513,123.027666 C77.2073513,124.275666 76.7913513,124.627666 75.7673513,124.819666 L75.4153513,124.883666 L75.4153513,125.363666 L83.8633513,125.363666 Z M90.1431351,125.747666 C92.3831351,125.747666 93.9511351,124.499666 94.6551351,123.443666 C94.8471351,124.339666 95.1991351,125.107666 95.6791351,125.651666 L101.183135,124.595666 L101.183135,124.115666 C99.7111351,123.955666 99.3591351,123.059666 99.3591351,121.651666 L99.3591351,101.907666 L99.1031351,101.907666 L92.6071351,103.283666 L92.6071351,103.731666 C94.0791351,103.891666 94.4951351,104.499666 94.4951351,105.715666 L94.4951351,109.779666 C93.9191351,109.683666 93.3111351,109.619666 92.7031351,109.619666 C87.4551351,109.619666 84.3511351,113.171666 84.3511351,118.099666 C84.3511351,122.867666 86.8791351,125.747666 90.1431351,125.747666 Z M92.7031351,123.667666 C90.7831351,123.667666 89.5351351,121.587666 89.5351351,117.491666 C89.5351351,112.691666 90.6871351,110.355666 92.6071351,110.355666 C93.5671351,110.355666 94.1431351,110.899666 94.4951351,111.571666 L94.4951351,122.035666 C94.4951351,122.355666 94.5271351,122.643666 94.5591351,122.931666 C94.1431351,123.347666 93.5991351,123.667666 92.7031351,123.667666 Z M117.550703,125.683666 C118.830703,125.683666 120.270703,125.043666 121.390703,124.019666 L121.390703,123.539666 C121.166703,123.635666 120.878703,123.731666 120.622703,123.731666 C119.758703,123.731666 119.374703,123.219666 119.374703,122.131666 L119.374703,114.131666 C119.374703,111.667666 117.774703,109.555666 113.230703,109.555666 C109.262703,109.555666 107.278703,111.699666 106.862703,113.235666 C107.150703,113.779666 108.014703,114.611666 109.390703,114.611666 C110.446703,114.611666 111.118703,114.291666 111.470703,112.979666 C111.950703,111.027666 112.174703,110.195666 113.070703,110.195666 C114.094703,110.195666 114.606703,111.059666 114.606703,113.619666 L114.606703,116.371666 L110.478703,117.651666 C107.662703,118.547666 106.478703,119.507666 106.478703,121.491666 C106.478703,123.667666 107.982703,125.651666 110.702703,125.651666 C112.398703,125.651666 113.806703,124.787666 114.702703,123.635666 C114.926703,124.595666 115.662703,125.683666 117.550703,125.683666 Z M113.390703,123.539666 C111.886703,123.539666 111.054703,121.971666 111.054703,120.243666 C111.054703,118.771666 111.438703,118.163666 112.782703,117.715666 L114.606703,117.075666 L114.606703,123.059666 C114.318703,123.347666 113.934703,123.539666 113.390703,123.539666 Z M132.06227,125.811666 C135.87027,125.811666 138.30227,123.411666 138.30227,120.563666 C138.30227,118.131666 136.89427,116.947666 133.95027,115.603666 L132.92627,115.155666 C130.91027,114.227666 130.11027,113.555666 130.11027,112.371666 C130.11027,111.251666 130.94227,110.291666 132.38227,110.291666 C134.62227,110.291666 135.87027,112.595666 136.51027,114.739666 L137.11827,114.739666 L137.21427,110.387666 C136.28627,109.971666 134.43027,109.555666 132.54227,109.555666 C128.95827,109.555666 126.49427,111.731666 126.49427,114.515666 C126.49427,116.883666 128.09427,118.067666 130.52627,119.187666 L131.51827,119.635666 C133.63027,120.627666 134.55827,121.267666 134.55827,122.707666 C134.55827,124.179666 133.53427,125.043666 132.09427,125.043666 C129.59827,125.043666 127.96627,122.387666 127.26227,119.763666 L126.65427,119.763666 L126.55827,124.787666 C127.93427,125.331666 129.82227,125.811666 132.06227,125.811666 Z M147.270054,125.363666 L147.238054,124.883666 L146.854054,124.819666 C145.926054,124.659666 145.542054,124.275666 145.542054,123.027666 L145.542054,112.787666 C146.118054,112.243666 146.950054,111.827666 147.846054,111.827666 C149.446054,111.827666 150.086054,112.979666 150.086054,114.643666 L150.086054,123.059666 C150.086054,124.275666 149.670054,124.659666 148.742054,124.819666 L148.358054,124.883666 L148.358054,125.363666 L156.678054,125.363666 L156.646054,124.883666 L156.262054,124.819666 C155.334054,124.659666 154.950054,124.275666 154.950054,123.059666 L154.950054,114.419666 C154.950054,113.907666 154.918054,113.395666 154.790054,112.915666 C155.366054,112.243666 156.230054,111.827666 157.222054,111.827666 C158.854054,111.827666 159.462054,112.979666 159.462054,114.643666 L159.462054,123.059666 C159.462054,124.275666 159.142054,124.659666 158.182054,124.819666 L157.766054,124.883666 L157.766054,125.363666 L166.214054,125.363666 L166.214054,124.883666 L165.766054,124.819666 C164.710054,124.659666 164.326054,124.275666 164.326054,123.059666 L164.326054,114.419666 C164.326054,112.019666 163.494054,109.555666 159.814054,109.555666 C157.158054,109.555666 155.430054,111.155666 154.694054,112.435666 C154.214054,110.835666 152.998054,109.555666 150.502054,109.555666 C147.974054,109.555666 146.246054,110.995666 145.414054,112.243666 L145.414054,109.651666 L145.222054,109.651666 L138.822054,111.027666 L138.822054,111.539666 C140.294054,111.731666 140.678054,112.339666 140.678054,113.523666 L140.678054,123.027666 C140.678054,124.275666 140.262054,124.595666 139.174054,124.819666 L138.822054,124.883666 L138.822054,125.363666 L147.270054,125.363666 Z M177.613838,125.683666 C178.893838,125.683666 180.333838,125.043666 181.453838,124.019666 L181.453838,123.539666 C181.229838,123.635666 180.941838,123.731666 180.685838,123.731666 C179.821838,123.731666 179.437838,123.219666 179.437838,122.131666 L179.437838,114.131666 C179.437838,111.667666 177.837838,109.555666 173.293838,109.555666 C169.325838,109.555666 167.341838,111.699666 166.925838,113.235666 C167.213838,113.779666 168.077838,114.611666 169.453838,114.611666 C170.509838,114.611666 171.181838,114.291666 171.533838,112.979666 C172.013838,111.027666 172.237838,110.195666 173.133838,110.195666 C174.157838,110.195666 174.669838,111.059666 174.669838,113.619666 L174.669838,116.371666 L170.541838,117.651666 C167.725838,118.547666 166.541838,119.507666 166.541838,121.491666 C166.541838,123.667666 168.045838,125.651666 170.765838,125.651666 C172.461838,125.651666 173.869838,124.787666 174.765838,123.635666 C174.989838,124.595666 175.725838,125.683666 177.613838,125.683666 Z M173.453838,123.539666 C171.949838,123.539666 171.117838,121.971666 171.117838,120.243666 C171.117838,118.771666 171.501838,118.163666 172.845838,117.715666 L174.669838,117.075666 L174.669838,123.059666 C174.381838,123.347666 173.997838,123.539666 173.453838,123.539666 Z M190.645622,125.363666 L190.645622,124.883666 L190.101622,124.819666 C188.821622,124.659666 188.021622,124.307666 188.021622,123.027666 L188.021622,113.875666 C188.309622,113.267666 188.725622,112.883666 189.333622,112.883666 C189.781622,112.883666 190.101622,113.075666 190.741622,113.459666 C191.381622,113.875666 191.861622,114.003666 192.309622,114.003666 C193.557622,114.003666 194.485622,112.499666 194.773622,111.219666 C194.389622,110.675666 193.365622,109.683666 191.861622,109.683666 C189.845622,109.683666 188.501622,111.635666 187.893622,113.203666 L187.893622,109.651666 L187.701622,109.651666 L181.301622,111.027666 L181.301622,111.475666 C182.741622,111.635666 183.157622,112.275666 183.157622,113.459666 L183.157622,123.027666 C183.157622,124.275666 182.709622,124.595666 181.653622,124.819666 L181.301622,124.883666 L181.301622,125.363666 L190.645622,125.363666 Z M200.957405,125.715666 C202.749405,125.715666 204.509405,124.883666 205.629405,123.827666 L205.629405,123.315666 C205.181405,123.507666 204.605405,123.635666 204.093405,123.635666 C202.557405,123.635666 201.821405,122.803666 201.821405,120.979666 L201.821405,111.379666 L205.021405,111.379666 L205.405405,110.003666 L201.821405,110.003666 L201.821405,106.131666 L200.285405,106.131666 C199.421405,108.275666 197.789405,110.131666 195.197405,110.803666 L195.197405,111.379666 L196.957405,111.379666 L196.957405,121.683666 C196.957405,124.307666 198.525405,125.715666 200.957405,125.715666 Z M212.261189,125.811666 C215.237189,125.811666 217.573189,124.083666 218.725189,119.987666 L218.309189,119.795666 C217.253189,121.459666 216.069189,122.195666 214.181189,122.195666 C211.653189,122.195666 209.541189,120.403666 209.477189,116.243666 L218.437189,116.243666 C218.469189,115.891666 218.469189,115.763666 218.469189,115.603666 C218.469189,112.723666 216.677189,109.555666 212.325189,109.555666 C208.517189,109.555666 205.157189,113.011666 205.157189,118.067666 C205.157189,122.611666 208.101189,125.811666 212.261189,125.811666 Z M214.309189,115.475666 L209.477189,115.475666 C209.605189,112.211666 210.597189,110.323666 212.101189,110.323666 C213.445189,110.323666 214.181189,112.435666 214.309189,115.475666 Z M228.556973,125.363666 L228.556973,124.883666 L228.012973,124.819666 C226.732973,124.659666 225.932973,124.307666 225.932973,123.027666 L225.932973,113.875666 C226.220973,113.267666 226.636973,112.883666 227.244973,112.883666 C227.692973,112.883666 228.012973,113.075666 228.652973,113.459666 C229.292973,113.875666 229.772973,114.003666 230.220973,114.003666 C231.468973,114.003666 232.396973,112.499666 232.684973,111.219666 C232.300973,110.675666 231.276973,109.683666 229.772973,109.683666 C227.756973,109.683666 226.412973,111.635666 225.804973,113.203666 L225.804973,109.651666 L225.612973,109.651666 L219.212973,111.027666 L219.212973,111.475666 C220.652973,111.635666 221.068973,112.275666 221.068973,113.459666 L221.068973,123.027666 C221.068973,124.275666 220.620973,124.595666 219.564973,124.819666 L219.212973,124.883666 L219.212973,125.363666 L228.556973,125.363666 Z" id="Buildasmarter"></path>
        </g>
    </g>
</svg>