<?xml version="1.0" encoding="UTF-8"?>
<svg width="138px" height="34px" viewBox="0 0 138 34" version="1.1" xmlns="http://www.w3.org/2000/svg" xmlns:xlink="http://www.w3.org/1999/xlink">
    <!-- Generator: Sketch 59.1 (86144) - https://sketch.com -->
    <title>logo-horizontal-reversed</title>
    <desc>Created with Sketch.</desc>
    <g id="logo-horizontal-reversed" stroke="none" stroke-width="1" fill="none" fill-rule="evenodd">
        <g id="Group" transform="translate(0.000000, 4.000000)" fill="#FFFFFF">
            <path d="M28,24.32 C32.66,24.69 36.79,25.39 39.99,26.3 L39.99,1 C39.99,0.44771525 39.5422847,-1.01453063e-16 38.99,0 L29,0 C28.4477153,1.01453063e-16 28,0.44771525 28,1 L28,24.32 L28,24.32 Z M33,16 L33,21 L30,21 L30,16 L33,16 Z M38,16 L38,21 L35,21 L35,16 L38,16 Z M33,9 L33,14 L30,14 L30,9 L33,9 Z M38,9 L38,14 L35,14 L35,9 L38,9 Z M33,2 L33,7 L30,7 L30,2 L33,2 Z M38,2 L38,7 L35,7 L35,2 L38,2 Z" id="Shape-copy-copy"></path>
            <path d="M14,24.17 C15.93,24.06 17.94,24 20,24 C22.06,24 24.07,24.06 26,24.18 L26,8 C26,7.44771525 25.5522847,7 25,7 L15,7 C14.4477153,7 14,7.44771525 14,8 L14,24.17 L14,24.17 Z M16,16 L19,16 L19,21 L16,21 L16,16 L16,16 Z M21,16 L24,16 L24,21 L21,21 L21,16 L21,16 Z M16,9 L19,9 L19,14 L16,14 L16,9 L16,9 Z M21,9 L24,9 L24,14 L21,14 L21,9 L21,9 Z" id="Shape-copy-copy"></path>
            <path d="M0,26.29 C3.2,25.38 7.33,24.68 12,24.31 L12,15 C12,14.4477153 11.5522847,14 11,14 L1,14 C0.44771525,14 -6.76353751e-17,14.4477153 0,15 L0,26.29 L0,26.29 Z M2,16 L5,16 L5,21 L2,21 L2,16 L2,16 Z M7,16 L10,16 L10,21 L7,21 L7,16 L7,16 Z" id="Shape-copy-copy"></path>
            <g id="wordmark-horizontal-white" transform="translate(49.000000, 7.000000)">
                <polygon id="Fill-1-copy" points="0 0.1632 0 11.8198154 2.2240842 11.8198154 2.2240842 7.1564308 8.0200421 7.1564308 8.0200421 5.1201231 2.2240842 5.1201231 2.2240842 2.20043077 8.7583158 2.20043077 8.7583158 0.1632"></polygon>
                <path d="M18.8112505,6.8591077 C18.8112505,8.8501846 17.8219453,9.9468 16.0239663,9.9468 C14.2426611,9.9468 13.2218611,8.7911077 13.2218611,6.7769538 L13.2218611,0.16403077 L10.9968505,0.16403077 L10.9968505,6.8591077 C10.9968505,10.1258769 12.8170611,11.9997231 15.9915453,11.9997231 C19.1975242,11.9997231 21.0362611,10.0898769 21.0362611,6.7612615 L21.0362611,0.16403077 L18.8112505,0.16403077 L18.8112505,6.8591077 L18.8112505,6.8591077 Z" id="Fill-2-copy"></path>
                <polygon id="Fill-4-copy" points="32.0407074 7.8853846 26.0678232 0.20353846 26.0381811 0.16384615 24.0123284 0.16384615 24.0123284 11.8195385 26.2049179 11.8195385 26.2049179 3.8690769 32.3575074 11.7807692 32.3880758 11.8195385 34.2323705 11.8195385 34.2323705 0.16384615 32.0407074 0.16384615"></polygon>
                <path d="M41.7773979,9.7833231 L39.6144505,9.7833231 L39.6144505,2.20024615 L41.7773979,2.20024615 C44.0653979,2.20024615 45.6642189,3.7657846 45.6642189,6.0079385 C45.6642189,8.2657846 44.1015242,9.7833231 41.7773979,9.7833231 M41.7773979,0.16393846 L37.3903663,0.16393846 L37.3903663,11.8196308 L41.7773979,11.8196308 C45.3752084,11.8196308 47.9874189,9.3624 47.9874189,5.9756308 C47.9874189,2.60824615 45.3752084,0.16393846 41.7773979,0.16393846" id="Fill-6-copy"></path>
                <polygon id="Fill-8-copy" points="63.027453 11.82 65.251537 11.82 65.251537 0.16430769 63.027453 0.16430769"></polygon>
                <path d="M73.085297,4.9764 C70.838981,4.4419385 70.438813,4.0616308 70.438813,3.2594769 C70.438813,2.49886154 71.149297,1.98747692 72.207149,1.98747692 C73.21776,1.98747692 74.218181,2.36593846 75.264918,3.1459385 L75.349213,3.2077846 L76.549718,1.52224615 L76.474686,1.46132308 C75.245465,0.47824615 73.859697,9.231e-05 72.240497,9.231e-05 C69.869128,9.231e-05 68.213802,1.41424615 68.213802,3.4394769 C68.213802,5.6207077 69.585676,6.3647077 72.118223,6.9748615 C74.270055,7.4696308 74.633171,7.8887077 74.633171,8.6419385 C74.633171,9.4644 73.874518,9.9960923 72.69995,9.9960923 C71.410518,9.9960923 70.311907,9.5447077 69.139192,8.5320923 L69.059528,8.4637846 L67.714518,10.0588615 L67.788623,10.1253231 C69.154939,11.3419385 70.836202,11.9834769 72.650855,11.9834769 C75.20656,11.9834769 76.857255,10.5942462 76.857255,8.4453231 C76.857255,6.6314769 75.765128,5.6262462 73.085297,4.9764" id="Fill-10-copy"></path>
                <polygon id="Fill-11-copy" points="81.665482 9.8158154 81.665482 6.9450461 87.428093 6.9450461 87.428093 4.9410462 81.665482 4.9410462 81.665482 2.1672 88.166366 2.1672 88.166366 0.1632 79.440472 0.1632 79.440472 11.8198154 88.247882 11.8198154 88.247882 9.8158154"></polygon>
                <path d="M57.554594,7.4400923 C59.282173,6.9157846 60.231646,5.6622462 60.231646,3.8982462 C60.231646,1.59424615 58.555941,0.16347692 55.859436,0.16347692 L50.6350147,0.16347692 L50.6350147,11.8200923 L52.860025,11.8200923 L52.860025,2.19978462 L55.696404,2.19978462 C57.164615,2.19978462 57.974215,2.84409231 57.974215,4.0127077 C57.974215,5.1397846 57.107183,5.8404 55.712152,5.8404 L55.23232,5.8404 L55.23232,7.8277846 L58.025162,11.7767077 L58.056657,11.8200923 L60.68832,11.8200923 L57.554594,7.4400923 L57.554594,7.4400923 Z" id="Fill-12-copy"></path>
            </g>
        </g>
    </g>
</svg>