<?xml version="1.0" encoding="UTF-8"?>
<svg width="264px" height="80px" viewBox="0 0 264 80" version="1.1" xmlns="http://www.w3.org/2000/svg" xmlns:xlink="http://www.w3.org/1999/xlink">
    <title>Notification</title>
    <defs>
        <filter x="-11.1%" y="-75.0%" width="122.2%" height="250.0%" filterUnits="objectBoundingBox" id="filter-1">
            <feGaussianBlur stdDeviation="8" in="SourceGraphic"></feGaussianBlur>
        </filter>
        <path d="M16,0 L200,0 C208.836556,-1.623249e-15 216,7.163444 216,16 C216,24.836556 208.836556,32 200,32 L116.671533,32 L16,32 C7.163444,32 1.082166e-15,24.836556 0,16 C-1.082166e-15,7.163444 7.163444,1.623249e-15 16,0 Z" id="path-2"></path>
        <filter x="-4.6%" y="-25.0%" width="109.3%" height="162.5%" filterUnits="objectBoundingBox" id="filter-3">
            <feOffset dx="0" dy="2" in="SourceAlpha" result="shadowOffsetOuter1"></feOffset>
            <feGaussianBlur stdDeviation="3" in="shadowOffsetOuter1" result="shadowBlurOuter1"></feGaussianBlur>
            <feComposite in="shadowBlurOuter1" in2="SourceAlpha" operator="out" result="shadowBlurOuter1"></feComposite>
            <feColorMatrix values="0 0 0 0 0   0 0 0 0 0   0 0 0 0 0  0 0 0 0.136281687 0" type="matrix" in="shadowBlurOuter1"></feColorMatrix>
        </filter>
    </defs>
    <g id="Long-term-wealth" stroke="none" stroke-width="1" fill="none" fill-rule="evenodd">
        <g id="Long-Term-Wealth-/-MiQ-Display_Long-Term-Wealth-2_300x600_Black" transform="translate(-45.000000, -377.000000)">
            <g id="Notification" transform="translate(69.000000, 401.000000)">
                <path d="M16,0 L200,0 C208.836556,-1.623249e-15 216,7.163444 216,16 C216,24.836556 208.836556,32 200,32 L116.671533,32 L16,32 C7.163444,32 1.082166e-15,24.836556 0,16 C-1.082166e-15,7.163444 7.163444,1.623249e-15 16,0 Z" id="Rectangle-Copy-2" fill="#181818" opacity="0.7" filter="url(#filter-1)"></path>
                <g id="Rectangle-Copy">
                    <use fill="black" fill-opacity="1" filter="url(#filter-3)" xlink:href="#path-2"></use>
                    <use fill-opacity="0.3" fill="#FFFFFF" fill-rule="evenodd" xlink:href="#path-2"></use>
                </g>
                <path d="M17.71,19.5 L17.71,16.452 L20.086,11.628 L19.03,11.628 L18.022,13.848 C17.782,14.424 17.506,14.976 17.242,15.564 L17.194,15.564 C16.918,14.976 16.678,14.424 16.426,13.848 L15.418,11.628 L14.338,11.628 L16.702,16.452 L16.702,19.5 L17.71,19.5 Z M23.314,19.644 C24.742,19.644 26.026,18.528 26.026,16.596 C26.026,14.64 24.742,13.524 23.314,13.524 C21.886,13.524 20.614,14.64 20.614,16.596 C20.614,18.528 21.886,19.644 23.314,19.644 Z M23.314,18.816 C22.318,18.816 21.646,17.928 21.646,16.596 C21.646,15.252 22.318,14.352 23.314,14.352 C24.322,14.352 24.994,15.252 24.994,16.596 C24.994,17.928 24.322,18.816 23.314,18.816 Z M29.254,19.644 C30.058,19.644 30.634,19.224 31.174,18.588 L31.21,18.588 L31.294,19.5 L32.11,19.5 L32.11,13.668 L31.114,13.668 L31.114,17.796 C30.574,18.48 30.154,18.78 29.566,18.78 C28.798,18.78 28.462,18.312 28.462,17.232 L28.462,13.668 L27.466,13.668 L27.466,17.364 C27.466,18.852 28.018,19.644 29.254,19.644 Z M35.074,19.5 L35.074,15.756 C35.47,14.772 36.058,14.424 36.55,14.424 C36.778,14.424 36.91,14.448 37.078,14.496 L37.294,13.644 C37.114,13.56 36.934,13.524 36.67,13.524 C36.022,13.524 35.422,13.992 35.014,14.724 L34.978,14.724 L34.894,13.668 L34.078,13.668 L34.078,19.5 L35.074,19.5 Z M41.65,21.96 L41.65,19.992 L41.626,18.972 C42.154,19.392 42.706,19.644 43.234,19.644 C44.566,19.644 45.766,18.48 45.766,16.5 C45.766,14.688 44.95,13.524 43.45,13.524 C42.778,13.524 42.118,13.896 41.59,14.34 L41.554,14.34 L41.47,13.668 L40.654,13.668 L40.654,21.96 L41.65,21.96 Z M43.066,18.804 C42.682,18.804 42.178,18.648 41.65,18.204 L41.65,15.156 C42.214,14.628 42.706,14.364 43.198,14.364 C44.29,14.364 44.734,15.216 44.734,16.5 C44.734,17.94 44.026,18.804 43.066,18.804 Z M49.582,19.644 C51.01,19.644 52.294,18.528 52.294,16.596 C52.294,14.64 51.01,13.524 49.582,13.524 C48.154,13.524 46.882,14.64 46.882,16.596 C46.882,18.528 48.154,19.644 49.582,19.644 Z M49.582,18.816 C48.586,18.816 47.914,17.928 47.914,16.596 C47.914,15.252 48.586,14.352 49.582,14.352 C50.59,14.352 51.262,15.252 51.262,16.596 C51.262,17.928 50.59,18.816 49.582,18.816 Z M54.814,19.5 L54.814,15.756 C55.21,14.772 55.798,14.424 56.29,14.424 C56.518,14.424 56.65,14.448 56.818,14.496 L57.034,13.644 C56.854,13.56 56.674,13.524 56.41,13.524 C55.762,13.524 55.162,13.992 54.754,14.724 L54.718,14.724 L54.634,13.668 L53.818,13.668 L53.818,19.5 L54.814,19.5 Z M59.83,19.644 C60.226,19.644 60.622,19.536 60.934,19.392 L60.73,18.684 C60.49,18.792 60.274,18.828 60.058,18.828 C59.398,18.828 59.158,18.42 59.158,17.712 L59.158,14.472 L60.742,14.472 L60.742,13.668 L59.158,13.668 L59.158,11.796 L58.33,11.796 L58.21,13.668 L57.298,13.728 L57.298,14.472 L58.162,14.472 L58.162,17.688 C58.162,18.852 58.582,19.644 59.83,19.644 Z M63.226,19.5 L63.226,14.472 L64.45,14.472 L64.45,13.668 L63.226,13.668 L63.226,12.756 C63.226,12.012 63.49,11.616 64.042,11.616 C64.246,11.616 64.462,11.664 64.69,11.736 L64.906,11.004 C64.666,10.896 64.294,10.812 63.934,10.812 C62.77,10.812 62.23,11.568 62.23,12.756 L62.23,13.668 L61.438,13.728 L61.438,14.472 L62.23,14.472 L62.23,19.5 L63.226,19.5 Z M67.834,19.644 C69.262,19.644 70.546,18.528 70.546,16.596 C70.546,14.64 69.262,13.524 67.834,13.524 C66.406,13.524 65.134,14.64 65.134,16.596 C65.134,18.528 66.406,19.644 67.834,19.644 Z M67.834,18.816 C66.838,18.816 66.166,17.928 66.166,16.596 C66.166,15.252 66.838,14.352 67.834,14.352 C68.842,14.352 69.514,15.252 69.514,16.596 C69.514,17.928 68.842,18.816 67.834,18.816 Z M73.114,19.644 C73.366,19.644 73.546,19.608 73.69,19.536 L73.558,18.792 C73.462,18.816 73.414,18.816 73.354,18.816 C73.198,18.816 73.066,18.708 73.066,18.396 L73.066,10.956 L72.07,10.956 L72.07,18.324 C72.07,19.164 72.37,19.644 73.114,19.644 Z M75.634,12.468 C76.018,12.468 76.294,12.216 76.294,11.82 C76.294,11.436 76.018,11.172 75.634,11.172 C75.25,11.172 74.974,11.436 74.974,11.82 C74.974,12.216 75.25,12.468 75.634,12.468 Z M76.126,19.5 L76.126,13.668 L75.13,13.668 L75.13,19.5 L76.126,19.5 Z M80.362,19.644 C81.79,19.644 83.074,18.528 83.074,16.596 C83.074,14.64 81.79,13.524 80.362,13.524 C78.934,13.524 77.662,14.64 77.662,16.596 C77.662,18.528 78.934,19.644 80.362,19.644 Z M80.362,18.816 C79.366,18.816 78.694,17.928 78.694,16.596 C78.694,15.252 79.366,14.352 80.362,14.352 C81.37,14.352 82.042,15.252 82.042,16.596 C82.042,17.928 81.37,18.816 80.362,18.816 Z M88.342,19.644 C89.074,19.644 89.71,19.272 90.262,18.804 L90.298,18.804 L90.394,19.5 L91.21,19.5 L91.21,15.912 C91.21,14.472 90.598,13.524 89.182,13.524 C88.246,13.524 87.43,13.92 86.89,14.28 L87.274,14.952 C87.73,14.652 88.342,14.352 89.014,14.352 C89.962,14.352 90.202,15.06 90.214,15.792 C87.718,16.068 86.638,16.692 86.638,17.988 C86.638,19.044 87.37,19.644 88.342,19.644 Z M88.618,18.828 C88.054,18.828 87.61,18.576 87.61,17.928 C87.61,17.172 88.246,16.728 90.214,16.5 L90.214,18.084 C89.65,18.576 89.182,18.828 88.618,18.828 Z M95.35,19.644 C96.046,19.644 96.706,19.38 97.234,18.9 L96.802,18.264 C96.454,18.576 95.974,18.816 95.434,18.816 C94.366,18.816 93.646,17.928 93.646,16.596 C93.646,15.252 94.414,14.352 95.47,14.352 C95.938,14.352 96.31,14.532 96.634,14.832 L97.126,14.208 C96.718,13.824 96.19,13.524 95.422,13.524 C93.922,13.524 92.614,14.64 92.614,16.596 C92.614,18.528 93.802,19.644 95.35,19.644 Z M103.21,21.96 L103.21,13.668 L102.418,13.668 L102.322,14.22 L102.286,14.22 C101.77,13.764 101.302,13.524 100.63,13.524 C99.298,13.524 98.098,14.7 98.098,16.596 C98.098,18.54 99.046,19.644 100.51,19.644 C101.182,19.644 101.794,19.284 102.262,18.828 L102.214,19.884 L102.214,21.96 L103.21,21.96 Z M100.726,18.804 C99.706,18.804 99.13,17.976 99.13,16.584 C99.13,15.252 99.874,14.364 100.798,14.364 C101.278,14.364 101.722,14.52 102.214,14.964 L102.214,18.012 C101.734,18.54 101.266,18.804 100.726,18.804 Z M106.882,19.644 C107.686,19.644 108.262,19.224 108.802,18.588 L108.838,18.588 L108.922,19.5 L109.738,19.5 L109.738,13.668 L108.742,13.668 L108.742,17.796 C108.202,18.48 107.782,18.78 107.194,18.78 C106.426,18.78 106.09,18.312 106.09,17.232 L106.09,13.668 L105.094,13.668 L105.094,17.364 C105.094,18.852 105.646,19.644 106.882,19.644 Z M112.21,12.468 C112.594,12.468 112.87,12.216 112.87,11.82 C112.87,11.436 112.594,11.172 112.21,11.172 C111.826,11.172 111.55,11.436 111.55,11.82 C111.55,12.216 111.826,12.468 112.21,12.468 Z M112.702,19.5 L112.702,13.668 L111.706,13.668 L111.706,19.5 L112.702,19.5 Z M115.666,19.5 L115.666,15.756 C116.062,14.772 116.65,14.424 117.142,14.424 C117.37,14.424 117.502,14.448 117.67,14.496 L117.886,13.644 C117.706,13.56 117.526,13.524 117.262,13.524 C116.614,13.524 116.014,13.992 115.606,14.724 L115.57,14.724 L115.486,13.668 L114.67,13.668 L114.67,19.5 L115.666,19.5 Z M121.198,19.644 C122.002,19.644 122.626,19.404 123.13,19.044 L122.782,18.408 C122.374,18.684 121.882,18.84 121.318,18.84 C120.214,18.84 119.482,18.048 119.398,16.848 L123.322,16.848 C123.358,16.656 123.37,16.476 123.37,16.26 C123.37,14.58 122.518,13.524 121.03,13.524 C119.698,13.524 118.414,14.688 118.414,16.584 C118.414,18.516 119.638,19.644 121.198,19.644 Z M122.482,16.08 L119.398,16.08 C119.518,14.964 120.238,14.316 121.054,14.316 C121.942,14.316 122.482,14.928 122.482,16.08 Z M126.79,19.644 C127.474,19.644 128.098,19.26 128.554,18.816 L128.59,18.816 L128.674,19.5 L129.49,19.5 L129.49,10.956 L128.494,10.956 L128.494,13.2 L128.542,14.196 C128.026,13.776 127.582,13.524 126.91,13.524 C125.578,13.524 124.378,14.7 124.378,16.596 C124.378,18.54 125.326,19.644 126.79,19.644 Z M127.006,18.804 C125.986,18.804 125.41,17.976 125.41,16.584 C125.41,15.252 126.154,14.364 127.078,14.364 C127.558,14.364 128.002,14.52 128.494,14.964 L128.494,18.012 C128.014,18.54 127.546,18.804 127.006,18.804 Z M135.202,19.644 C135.934,19.644 136.57,19.272 137.122,18.804 L137.158,18.804 L137.254,19.5 L138.07,19.5 L138.07,15.912 C138.07,14.472 137.458,13.524 136.042,13.524 C135.106,13.524 134.29,13.92 133.75,14.28 L134.134,14.952 C134.59,14.652 135.202,14.352 135.874,14.352 C136.822,14.352 137.062,15.06 137.074,15.792 C134.578,16.068 133.498,16.692 133.498,17.988 C133.498,19.044 134.23,19.644 135.202,19.644 Z M135.478,18.828 C134.914,18.828 134.47,18.576 134.47,17.928 C134.47,17.172 135.106,16.728 137.074,16.5 L137.074,18.084 C136.51,18.576 136.042,18.828 135.478,18.828 Z M143.302,19.5 L143.302,15.276 C143.878,14.688 144.298,14.388 144.886,14.388 C145.654,14.388 145.99,14.844 145.99,15.936 L145.99,19.5 L146.986,19.5 L146.986,15.804 C146.986,14.316 146.434,13.524 145.198,13.524 C144.394,13.524 143.794,13.956 143.242,14.508 L143.206,14.508 L143.122,13.668 L142.306,13.668 L142.306,19.5 L143.302,19.5 Z M151.222,19.644 C152.026,19.644 152.65,19.404 153.154,19.044 L152.806,18.408 C152.398,18.684 151.906,18.84 151.342,18.84 C150.238,18.84 149.506,18.048 149.422,16.848 L153.346,16.848 C153.382,16.656 153.394,16.476 153.394,16.26 C153.394,14.58 152.542,13.524 151.054,13.524 C149.722,13.524 148.438,14.688 148.438,16.584 C148.438,18.516 149.662,19.644 151.222,19.644 Z M152.506,16.08 L149.422,16.08 C149.542,14.964 150.262,14.316 151.078,14.316 C151.966,14.316 152.506,14.928 152.506,16.08 Z M156.958,19.5 L157.738,16.368 C157.894,15.84 158.002,15.324 158.11,14.64 L158.158,14.64 C158.29,15.324 158.398,15.828 158.542,16.368 L159.334,19.5 L160.594,19.5 L162.166,13.668 L161.218,13.668 L160.366,17.052 C160.234,17.58 160.138,18.084 160.018,18.708 L159.97,18.708 C159.85,18.084 159.718,17.58 159.586,17.052 L158.698,13.668 L157.63,13.668 L156.754,17.052 C156.622,17.58 156.514,18.084 156.394,18.708 L156.346,18.708 C156.25,18.084 156.13,17.58 155.998,17.052 L155.146,13.668 L154.126,13.668 L155.758,19.5 L156.958,19.5 Z M166.834,21.96 L166.834,19.992 L166.81,18.972 C167.338,19.392 167.89,19.644 168.418,19.644 C169.75,19.644 170.95,18.48 170.95,16.5 C170.95,14.688 170.134,13.524 168.634,13.524 C167.962,13.524 167.302,13.896 166.774,14.34 L166.738,14.34 L166.654,13.668 L165.838,13.668 L165.838,21.96 L166.834,21.96 Z M168.25,18.804 C167.866,18.804 167.362,18.648 166.834,18.204 L166.834,15.156 C167.398,14.628 167.89,14.364 168.382,14.364 C169.474,14.364 169.918,15.216 169.918,16.5 C169.918,17.94 169.21,18.804 168.25,18.804 Z M173.494,19.5 L173.494,15.756 C173.89,14.772 174.478,14.424 174.97,14.424 C175.198,14.424 175.33,14.448 175.498,14.496 L175.714,13.644 C175.534,13.56 175.354,13.524 175.09,13.524 C174.442,13.524 173.842,13.992 173.434,14.724 L173.398,14.724 L173.314,13.668 L172.498,13.668 L172.498,19.5 L173.494,19.5 Z M178.942,19.644 C180.37,19.644 181.654,18.528 181.654,16.596 C181.654,14.64 180.37,13.524 178.942,13.524 C177.514,13.524 176.242,14.64 176.242,16.596 C176.242,18.528 177.514,19.644 178.942,19.644 Z M178.942,18.816 C177.946,18.816 177.274,17.928 177.274,16.596 C177.274,15.252 177.946,14.352 178.942,14.352 C179.95,14.352 180.622,15.252 180.622,16.596 C180.622,17.928 179.95,18.816 178.942,18.816 Z M183.67,12.468 C184.054,12.468 184.33,12.216 184.33,11.82 C184.33,11.436 184.054,11.172 183.67,11.172 C183.286,11.172 183.01,11.436 183.01,11.82 C183.01,12.216 183.286,12.468 183.67,12.468 Z M182.578,22.104 C183.742,22.104 184.186,21.348 184.186,20.148 L184.186,13.668 L183.19,13.668 L183.19,20.148 C183.19,20.856 183.046,21.288 182.47,21.288 C182.278,21.288 182.062,21.24 181.918,21.192 L181.714,21.936 C181.918,22.032 182.23,22.104 182.578,22.104 Z M188.494,19.644 C189.298,19.644 189.922,19.404 190.426,19.044 L190.078,18.408 C189.67,18.684 189.178,18.84 188.614,18.84 C187.51,18.84 186.778,18.048 186.694,16.848 L190.618,16.848 C190.654,16.656 190.666,16.476 190.666,16.26 C190.666,14.58 189.814,13.524 188.326,13.524 C186.994,13.524 185.71,14.688 185.71,16.584 C185.71,18.516 186.934,19.644 188.494,19.644 Z M189.778,16.08 L186.694,16.08 C186.814,14.964 187.534,14.316 188.35,14.316 C189.238,14.316 189.778,14.928 189.778,16.08 Z M194.398,19.644 C195.094,19.644 195.754,19.38 196.282,18.9 L195.85,18.264 C195.502,18.576 195.022,18.816 194.482,18.816 C193.414,18.816 192.694,17.928 192.694,16.596 C192.694,15.252 193.462,14.352 194.518,14.352 C194.986,14.352 195.358,14.532 195.682,14.832 L196.174,14.208 C195.766,13.824 195.238,13.524 194.47,13.524 C192.97,13.524 191.662,14.64 191.662,16.596 C191.662,18.528 192.85,19.644 194.398,19.644 Z M199.402,19.644 C199.798,19.644 200.194,19.536 200.506,19.392 L200.302,18.684 C200.062,18.792 199.846,18.828 199.63,18.828 C198.97,18.828 198.73,18.42 198.73,17.712 L198.73,14.472 L200.314,14.472 L200.314,13.668 L198.73,13.668 L198.73,11.796 L197.902,11.796 L197.782,13.668 L196.87,13.728 L196.87,14.472 L197.734,14.472 L197.734,17.688 C197.734,18.852 198.154,19.644 199.402,19.644 Z M202.15,19.644 C202.546,19.644 202.87,19.332 202.87,18.888 C202.87,18.432 202.546,18.12 202.15,18.12 C201.754,18.12 201.43,18.432 201.43,18.888 C201.43,19.332 201.754,19.644 202.15,19.644 Z" id="Yourportfolioacquiredanewproject." fill="#FFFFFF" fill-rule="nonzero"></path>
            </g>
        </g>
    </g>
</svg>