<?xml version="1.0" encoding="UTF-8"?>
<svg width="187px" height="31px" viewBox="0 0 187 31" version="1.1" xmlns="http://www.w3.org/2000/svg" xmlns:xlink="http://www.w3.org/1999/xlink">
    <title>portfoliowith</title>
    <g id="Real-Estate" stroke="none" stroke-width="1" fill="none" fill-rule="evenodd">
        <g id="Real-Estate-/-MiQ-Display_Real-Estate-2_300x600_Black" transform="translate(-27.000000, -135.000000)" fill="#FFFFFF" fill-rule="nonzero">
            <path d="M36.446,165.859666 L36.446,165.379666 L36.062,165.315666 C35.038,165.123666 34.622,164.643666 34.622,163.331666 L34.622,159.619666 C35.23,159.715666 35.838,159.779666 36.382,159.779666 C41.662,159.779666 44.798,156.227666 44.798,151.235666 C44.798,146.531666 42.302,143.651666 38.878,143.651666 C36.606,143.651666 35.102,144.931666 34.494,145.987666 L34.494,143.651666 L34.302,143.651666 L27.902,145.027666 L27.902,145.507666 C29.374,145.699666 29.758,146.307666 29.758,147.491666 L29.758,163.331666 C29.758,164.643666 29.374,165.091666 28.286,165.315666 L27.934,165.379666 L27.934,165.859666 L36.446,165.859666 Z M36.542,159.011666 C35.582,159.011666 34.974,158.563666 34.622,157.891666 L34.622,146.371666 C35.038,145.955666 35.614,145.699666 36.446,145.699666 C38.398,145.699666 39.582,147.779666 39.582,151.907666 C39.582,156.515666 38.59,159.011666 36.542,159.011666 Z M54.0537838,159.811666 C58.2777838,159.811666 62.0217838,156.419666 62.0217838,151.619666 C62.0217838,146.819666 58.2777838,143.555666 54.0537838,143.555666 C49.7337838,143.555666 46.0537838,146.947666 46.0537838,151.747666 C46.0537838,156.547666 49.7337838,159.811666 54.0537838,159.811666 Z M54.2457838,159.043666 C52.4217838,159.043666 51.3017838,155.107666 51.3017838,151.171666 C51.3017838,147.235666 52.2297838,144.323666 53.8617838,144.323666 C55.5257838,144.323666 56.7417838,147.811666 56.7417838,152.195666 C56.7417838,156.131666 55.8137838,159.043666 54.2457838,159.043666 Z M71.9495675,159.363666 L71.9495675,158.883666 L71.4055675,158.819666 C70.1255675,158.659666 69.3255675,158.307666 69.3255675,157.027666 L69.3255675,147.875666 C69.6135675,147.267666 70.0295675,146.883666 70.6375675,146.883666 C71.0855675,146.883666 71.4055675,147.075666 72.0455675,147.459666 C72.6855675,147.875666 73.1655675,148.003666 73.6135675,148.003666 C74.8615675,148.003666 75.7895675,146.499666 76.0775675,145.219666 C75.6935675,144.675666 74.6695675,143.683666 73.1655675,143.683666 C71.1495675,143.683666 69.8055675,145.635666 69.1975675,147.203666 L69.1975675,143.651666 L69.0055675,143.651666 L62.6055675,145.027666 L62.6055675,145.475666 C64.0455675,145.635666 64.4615675,146.275666 64.4615675,147.459666 L64.4615675,157.027666 C64.4615675,158.275666 64.0135675,158.595666 62.9575675,158.819666 L62.6055675,158.883666 L62.6055675,159.363666 L71.9495675,159.363666 Z M82.2613513,159.715666 C84.0533513,159.715666 85.8133513,158.883666 86.9333513,157.827666 L86.9333513,157.315666 C86.4853513,157.507666 85.9093513,157.635666 85.3973513,157.635666 C83.8613513,157.635666 83.1253513,156.803666 83.1253513,154.979666 L83.1253513,145.379666 L86.3253513,145.379666 L86.7093513,144.003666 L83.1253513,144.003666 L83.1253513,140.131666 L81.5893513,140.131666 C80.7253513,142.275666 79.0933513,144.131666 76.5013513,144.803666 L76.5013513,145.379666 L78.2613513,145.379666 L78.2613513,155.683666 C78.2613513,158.307666 79.8293513,159.715666 82.2613513,159.715666 Z M96.2211351,159.363666 L96.2211351,158.883666 L95.7091351,158.819666 C94.4291351,158.659666 93.5971351,158.307666 93.5971351,157.027666 L93.5971351,145.379666 L96.5091351,145.379666 L96.8611351,144.003666 L93.5971351,144.003666 L93.5971351,142.179666 C93.5971351,138.403666 93.9811351,136.707666 94.8451351,136.707666 C95.4851351,136.707666 95.7731351,137.667666 96.1251351,138.531666 C96.5091351,139.427666 97.0211351,139.747666 97.7571351,139.747666 C98.7491351,139.747666 99.5491351,139.011666 99.9331351,138.179666 C99.4531351,137.251666 98.1731351,135.971666 95.1651351,135.971666 C92.1571351,135.971666 88.7331351,137.827666 88.7331351,142.435666 L88.7331351,144.131666 L86.7491351,144.835666 L86.7491351,145.379666 L88.7331351,145.379666 L88.7331351,157.027666 C88.7331351,158.211666 88.3171351,158.595666 87.2611351,158.819666 L86.9091351,158.883666 L86.9091351,159.363666 L96.2211351,159.363666 Z M104.420919,159.811666 C108.644919,159.811666 112.388919,156.419666 112.388919,151.619666 C112.388919,146.819666 108.644919,143.555666 104.420919,143.555666 C100.100919,143.555666 96.4209189,146.947666 96.4209189,151.747666 C96.4209189,156.547666 100.100919,159.811666 104.420919,159.811666 Z M104.612919,159.043666 C102.788919,159.043666 101.668919,155.107666 101.668919,151.171666 C101.668919,147.235666 102.596919,144.323666 104.228919,144.323666 C105.892919,144.323666 107.108919,147.811666 107.108919,152.195666 C107.108919,156.131666 106.180919,159.043666 104.612919,159.043666 Z M121.228703,159.363666 L121.228703,158.883666 L120.876703,158.819666 C119.884703,158.627666 119.436703,158.275666 119.436703,157.027666 L119.436703,135.907666 L119.180703,135.907666 L112.780703,137.283666 L112.780703,137.731666 C114.188703,137.891666 114.572703,138.499666 114.572703,139.715666 L114.572703,157.027666 C114.572703,158.275666 114.156703,158.627666 113.132703,158.819666 L112.780703,158.883666 L112.780703,159.363666 L121.228703,159.363666 Z M126.004486,142.435666 C127.380486,142.435666 128.468486,141.347666 128.468486,140.067666 C128.468486,138.819666 127.380486,137.699666 126.004486,137.699666 C124.596486,137.699666 123.540486,138.819666 123.540486,140.067666 C123.540486,141.347666 124.596486,142.435666 126.004486,142.435666 Z M130.228486,159.363666 L130.228486,158.883666 L129.876486,158.819666 C128.884486,158.627666 128.436486,158.275666 128.436486,157.027666 L128.436486,143.651666 L128.180486,143.651666 L121.780486,145.027666 L121.780486,145.475666 C123.188486,145.635666 123.572486,146.243666 123.572486,147.459666 L123.572486,157.027666 C123.572486,158.275666 123.124486,158.627666 122.132486,158.819666 L121.780486,158.883666 L121.780486,159.363666 L130.228486,159.363666 Z M138.62027,159.811666 C142.84427,159.811666 146.58827,156.419666 146.58827,151.619666 C146.58827,146.819666 142.84427,143.555666 138.62027,143.555666 C134.30027,143.555666 130.62027,146.947666 130.62027,151.747666 C130.62027,156.547666 134.30027,159.811666 138.62027,159.811666 Z M138.81227,159.043666 C136.98827,159.043666 135.86827,155.107666 135.86827,151.171666 C135.86827,147.235666 136.79627,144.323666 138.42827,144.323666 C140.09227,144.323666 141.30827,147.811666 141.30827,152.195666 C141.30827,156.131666 140.38027,159.043666 138.81227,159.043666 Z M159.755838,159.395666 L163.531838,149.923666 L166.955838,159.395666 L168.811838,159.395666 L173.035838,148.675666 C174.027838,146.147666 174.827838,144.803666 175.979838,144.483666 L175.979838,144.003666 L171.147838,144.003666 L171.147838,144.483666 L171.435838,144.547666 C172.971838,144.899666 173.099838,146.115666 172.171838,148.515666 L169.867838,154.339666 L167.723838,148.227666 C166.795838,145.571666 167.115838,144.803666 168.491838,144.547666 L168.843838,144.483666 L168.843838,144.003666 L160.843838,144.003666 L160.843838,144.483666 C161.547838,144.643666 162.123838,145.955666 163.083838,148.675666 L163.083838,148.707666 L160.811838,154.403666 L158.347838,148.227666 C157.323838,145.571666 157.739838,144.931666 159.051838,144.579666 L159.403838,144.483666 L159.403838,144.003666 L151.115838,144.003666 L151.115838,144.483666 C151.947838,144.675666 152.555838,145.987666 153.643838,148.707666 L157.899838,159.395666 L159.755838,159.395666 Z M180.467622,142.435666 C181.843622,142.435666 182.931622,141.347666 182.931622,140.067666 C182.931622,138.819666 181.843622,137.699666 180.467622,137.699666 C179.059622,137.699666 178.003622,138.819666 178.003622,140.067666 C178.003622,141.347666 179.059622,142.435666 180.467622,142.435666 Z M184.691622,159.363666 L184.691622,158.883666 L184.339622,158.819666 C183.347622,158.627666 182.899622,158.275666 182.899622,157.027666 L182.899622,143.651666 L182.643622,143.651666 L176.243622,145.027666 L176.243622,145.475666 C177.651622,145.635666 178.035622,146.243666 178.035622,147.459666 L178.035622,157.027666 C178.035622,158.275666 177.587622,158.627666 176.595622,158.819666 L176.243622,158.883666 L176.243622,159.363666 L184.691622,159.363666 Z M190.811405,159.715666 C192.603405,159.715666 194.363405,158.883666 195.483405,157.827666 L195.483405,157.315666 C195.035405,157.507666 194.459405,157.635666 193.947405,157.635666 C192.411405,157.635666 191.675405,156.803666 191.675405,154.979666 L191.675405,145.379666 L194.875405,145.379666 L195.259405,144.003666 L191.675405,144.003666 L191.675405,140.131666 L190.139405,140.131666 C189.275405,142.275666 187.643405,144.131666 185.051405,144.803666 L185.051405,145.379666 L186.811405,145.379666 L186.811405,155.683666 C186.811405,158.307666 188.379405,159.715666 190.811405,159.715666 Z M203.843189,159.363666 L203.843189,158.883666 L203.491189,158.819666 C202.499189,158.627666 202.051189,158.275666 202.051189,157.027666 L202.051189,146.691666 C202.627189,146.211666 203.395189,145.923666 204.195189,145.923666 C205.859189,145.923666 206.563189,147.043666 206.563189,148.835666 L206.563189,157.027666 C206.563189,158.275666 206.147189,158.659666 205.251189,158.819666 L204.835189,158.883666 L204.835189,159.363666 L213.251189,159.363666 L213.251189,158.883666 L212.867189,158.819666 C211.811189,158.627666 211.427189,158.275666 211.427189,157.027666 L211.427189,148.323666 C211.427189,145.955666 210.275189,143.555666 206.787189,143.555666 C204.611189,143.555666 202.979189,144.771666 202.051189,145.923666 L202.051189,135.907666 L201.795189,135.907666 L195.395189,137.283666 L195.395189,137.731666 C196.803189,137.891666 197.187189,138.499666 197.187189,139.715666 L197.187189,157.027666 C197.187189,158.275666 196.771189,158.627666 195.747189,158.819666 L195.395189,158.883666 L195.395189,159.363666 L203.843189,159.363666 Z" id="portfoliowith"></path>
        </g>
    </g>
</svg>