<?xml version="1.0" encoding="UTF-8"?>
<svg width="140px" height="40px" viewBox="0 0 140 40" version="1.1" xmlns="http://www.w3.org/2000/svg" xmlns:xlink="http://www.w3.org/1999/xlink">
    <title>Button / 24px Gamma / Primary Copy 2</title>
    <g id="Long-term-wealth" stroke="none" stroke-width="1" fill="none" fill-rule="evenodd">
        <g id="Long-Term-Wealth-/-MiQ-Display_Long-Term-Wealth-2_160x600_Black" transform="translate(-10.000000, -223.000000)">
            <g id="Button-/-24px-Gamma-/-Primary-Copy-2" transform="translate(10.000000, 223.000000)">
                <rect id="Rectangle-[0-24]" fill="#F4633A" x="0" y="0" width="140" height="40" rx="1.09948823"></rect>
                <path d="M22.8301581,24.352185 C24.7828492,24.352185 25.9439087,23.1779316 25.9439087,21.7793826 C25.9439087,20.525966 25.2314404,19.8794669 24.2023194,19.4440696 L23.0412598,18.9690907 C22.3287915,18.6656319 21.6822924,18.4281425 21.6822924,17.7684495 C21.6822924,17.1483382 22.1968529,16.7789101 23.0016782,16.7789101 C23.6613712,16.7789101 24.2946764,17.0427873 24.8356246,17.5045723 L25.6800316,16.4754514 C25.0071448,15.8289523 24.0439931,15.4067488 23.0016782,15.4067488 C21.3128643,15.4067488 20.0990293,16.4754514 20.0990293,17.8608065 C20.0990293,19.1142231 20.9830179,19.7871099 21.8406187,20.1433441 L23.0148721,20.6579046 C23.7933098,20.987751 24.3474518,21.2120466 24.3474518,21.8981273 C24.3474518,22.5578202 23.8196975,22.9932176 22.8697397,22.9932176 C22.0385266,22.9932176 21.1809257,22.6501772 20.5608144,22.0564536 L19.7164074,23.0855746 C20.5344267,23.9167877 21.6427108,24.352185 22.8301581,24.352185 Z M30.8234375,24.1938587 L30.8234375,16.884461 L33.3038829,16.884461 L33.3038829,15.5650751 L26.7729229,15.5650751 L26.7729229,16.884461 L29.2533683,16.884461 L29.2533683,24.1938587 L30.8234375,24.1938587 Z M34.9641101,24.1938587 L35.6238031,21.8849334 L38.4868704,21.8849334 L39.1465633,24.1938587 L40.8089895,24.1938587 L38.0118915,15.5650751 L36.1647513,15.5650751 L33.3676532,24.1938587 L34.9641101,24.1938587 Z M38.1438301,20.6579046 L35.9800373,20.6579046 L36.2703022,19.6287836 C36.5473732,18.7184073 36.7980565,17.7420618 37.0223521,16.792104 L37.0751275,16.792104 C37.3258108,17.7288679 37.5764942,18.7184073 37.8535652,19.6287836 L38.1438301,20.6579046 Z M43.7226333,24.1938587 L43.7226333,20.8426186 L45.0024376,20.8426186 L46.8495779,24.1938587 L48.6043611,24.1938587 L46.559313,20.6051291 C47.5884339,20.248895 48.2613207,19.4440696 48.2613207,18.1378776 C48.2613207,16.1983803 46.8759656,15.5650751 45.0684069,15.5650751 L42.1525642,15.5650751 L42.1525642,24.1938587 L43.7226333,24.1938587 Z M44.9100806,19.589202 L43.7226333,19.589202 L43.7226333,16.8184917 L44.9100806,16.8184917 C46.0843341,16.8184917 46.7176393,17.161532 46.7176393,18.1378776 C46.7176393,19.1010292 46.0843341,19.589202 44.9100806,19.589202 Z M53.3519512,24.1938587 L53.3519512,16.884461 L55.8323967,16.884461 L55.8323967,15.5650751 L49.3014366,15.5650751 L49.3014366,16.884461 L51.781882,16.884461 L51.781882,24.1938587 L53.3519512,24.1938587 Z M62.0291123,24.1938587 L62.0291123,15.5650751 L60.4590431,15.5650751 L60.4590431,24.1938587 L62.0291123,24.1938587 Z M65.9454894,24.1938587 L65.9454894,20.4204151 C65.9454894,19.4572634 65.8399385,18.3885609 65.7475815,17.4913785 L65.8003569,17.4913785 C66.0774279,18.1774591 66.3676928,18.8635398 66.6843454,19.4440696 L69.2703418,24.1938587 L70.9459618,24.1938587 L70.9459618,15.5650751 L69.4814435,15.5650751 L69.4814435,19.3385187 C69.4814435,20.2884765 69.5869944,21.3439852 69.6793514,22.2675553 L69.6265759,22.2675553 C69.3495049,21.5814747 69.05924,20.895394 68.7425874,20.3148642 L66.1565911,15.5650751 L64.480971,15.5650751 L64.480971,24.1938587 L65.9454894,24.1938587 Z M76.7490607,24.1938587 L79.4669956,15.5650751 L77.8573448,15.5650751 L76.6303159,19.8794669 C76.3532449,20.8558125 76.1685309,21.7002194 75.878266,22.676565 L75.8254906,22.676565 C75.5352257,21.7002194 75.3373178,20.8558125 75.0734406,19.8794669 L73.9255749,15.5650751 L72.2631487,15.5650751 L74.8887266,24.1938587 L76.7490607,24.1938587 Z M86.1276952,24.1938587 L86.1276952,22.8744728 L82.3542516,22.8744728 L82.3542516,20.3676397 L85.4416146,20.3676397 L85.4416146,19.0482538 L82.3542516,19.0482538 L82.3542516,16.884461 L85.9957566,16.884461 L85.9957566,15.5650751 L80.7841824,15.5650751 L80.7841824,24.1938587 L86.1276952,24.1938587 Z M90.6905714,24.352185 C92.6432624,24.352185 93.804322,23.1779316 93.804322,21.7793826 C93.804322,20.525966 93.0918536,19.8794669 92.0627327,19.4440696 L90.9016731,18.9690907 C90.1892047,18.6656319 89.5427057,18.4281425 89.5427057,17.7684495 C89.5427057,17.1483382 90.0572661,16.7789101 90.8620915,16.7789101 C91.5217845,16.7789101 92.1550897,17.0427873 92.6960379,17.5045723 L93.5404448,16.4754514 C92.867558,15.8289523 91.9044064,15.4067488 90.8620915,15.4067488 C89.1732776,15.4067488 87.9594426,16.4754514 87.9594426,17.8608065 C87.9594426,19.1142231 88.8434311,19.7871099 89.701032,20.1433441 L90.8752854,20.6579046 C91.653723,20.987751 92.2078651,21.2120466 92.2078651,21.8981273 C92.2078651,22.5578202 91.6801108,22.9932176 90.7301529,22.9932176 C89.8989398,22.9932176 89.041339,22.6501772 88.4212277,22.0564536 L87.5768207,23.0855746 C88.3948399,23.9167877 89.5031241,24.352185 90.6905714,24.352185 Z M98.6838508,24.1938587 L98.6838508,16.884461 L101.164296,16.884461 L101.164296,15.5650751 L94.6333361,15.5650751 L94.6333361,16.884461 L97.1137816,16.884461 L97.1137816,24.1938587 L98.6838508,24.1938587 Z M104.447368,24.1938587 L104.447368,15.5650751 L102.877299,15.5650751 L102.877299,24.1938587 L104.447368,24.1938587 Z M108.363745,24.1938587 L108.363745,20.4204151 C108.363745,19.4572634 108.258194,18.3885609 108.165837,17.4913785 L108.218613,17.4913785 C108.495684,18.1774591 108.785949,18.8635398 109.102601,19.4440696 L111.688597,24.1938587 L113.364218,24.1938587 L113.364218,15.5650751 L111.899699,15.5650751 L111.899699,19.3385187 C111.899699,20.2884765 112.00525,21.3439852 112.097607,22.2675553 L112.044832,22.2675553 C111.767761,21.5814747 111.477496,20.895394 111.160843,20.3148642 L108.574847,15.5650751 L106.899227,15.5650751 L106.899227,24.1938587 L108.363745,24.1938587 Z M119.457581,24.352185 C120.631835,24.352185 121.634568,23.9035938 122.215098,23.323064 L122.215098,19.5100389 L119.206898,19.5100389 L119.206898,20.7898432 L120.803355,20.7898432 L120.803355,22.6237895 C120.539478,22.861279 120.077693,22.9932176 119.615908,22.9932176 C117.887512,22.9932176 116.99033,21.8057703 116.99033,19.8662731 C116.99033,17.9399697 118.006257,16.7789101 119.523551,16.7789101 C120.315182,16.7789101 120.816549,17.0427873 121.251946,17.4649908 L122.083159,16.5018391 C121.542211,15.9345032 120.697804,15.4067488 119.470775,15.4067488 C117.175044,15.4067488 115.380679,17.0823689 115.380679,19.9058546 C115.380679,22.768922 117.122268,24.352185 119.457581,24.352185 Z" id="STARTINVESTING" fill="#FFFFFF" fill-rule="nonzero"></path>
            </g>
        </g>
    </g>
</svg>