<?xml version="1.0" encoding="UTF-8"?>
<svg width="132px" height="25px" viewBox="0 0 132 25" version="1.1" xmlns="http://www.w3.org/2000/svg" xmlns:xlink="http://www.w3.org/1999/xlink">
    <title>realestate</title>
    <g id="Real-Estate" stroke="none" stroke-width="1" fill="none" fill-rule="evenodd">
        <g id="Real-Estate-/-MiQ-Display_Real-Estate-2_300x600_Black" transform="translate(-28.000000, -170.000000)" fill="#FFFFFF" fill-rule="nonzero">
            <path d="M37.406,194.363666 L37.406,193.883666 L36.862,193.819666 C35.582,193.659666 34.782,193.307666 34.782,192.027666 L34.782,182.875666 C35.07,182.267666 35.486,181.883666 36.094,181.883666 C36.542,181.883666 36.862,182.075666 37.502,182.459666 C38.142,182.875666 38.622,183.003666 39.07,183.003666 C40.318,183.003666 41.246,181.499666 41.534,180.219666 C41.15,179.675666 40.126,178.683666 38.622,178.683666 C36.606,178.683666 35.262,180.635666 34.654,182.203666 L34.654,178.651666 L34.462,178.651666 L28.062,180.027666 L28.062,180.475666 C29.502,180.635666 29.918,181.275666 29.918,182.459666 L29.918,192.027666 C29.918,193.275666 29.47,193.595666 28.414,193.819666 L28.062,193.883666 L28.062,194.363666 L37.406,194.363666 Z M48.1977838,194.811666 C51.1737838,194.811666 53.5097838,193.083666 54.6617838,188.987666 L54.2457838,188.795666 C53.1897838,190.459666 52.0057838,191.195666 50.1177838,191.195666 C47.5897838,191.195666 45.4777838,189.403666 45.4137838,185.243666 L54.3737838,185.243666 C54.3966409,184.992237 54.4031715,184.855094 54.4050374,184.738943 L54.4057838,184.603666 L54.4057838,184.603666 C54.4057838,181.723666 52.6137838,178.555666 48.2617838,178.555666 C44.4537838,178.555666 41.0937838,182.011666 41.0937838,187.067666 C41.0937838,191.611666 44.0377838,194.811666 48.1977838,194.811666 Z M50.2457838,184.475666 L45.4137838,184.475666 C45.5417838,181.211666 46.5337838,179.323666 48.0377838,179.323666 C49.3817838,179.323666 50.1177838,181.435666 50.2457838,184.475666 Z M66.5095675,194.683666 C67.7895675,194.683666 69.2295675,194.043666 70.3495675,193.019666 L70.3495675,192.539666 C70.1255675,192.635666 69.8375675,192.731666 69.5815675,192.731666 C68.7175675,192.731666 68.3335675,192.219666 68.3335675,191.131666 L68.3335675,183.131666 C68.3335675,180.667666 66.7335675,178.555666 62.1895675,178.555666 C58.2215675,178.555666 56.2375675,180.699666 55.8215675,182.235666 C56.1095675,182.779666 56.9735675,183.611666 58.3495675,183.611666 C59.4055675,183.611666 60.0775675,183.291666 60.4295675,181.979666 C60.9095675,180.027666 61.1335675,179.195666 62.0295675,179.195666 C63.0535675,179.195666 63.5655675,180.059666 63.5655675,182.619666 L63.5655675,185.371666 L59.4375675,186.651666 C56.6215675,187.547666 55.4375675,188.507666 55.4375675,190.491666 C55.4375675,192.667666 56.9415675,194.651666 59.6615675,194.651666 C61.3575675,194.651666 62.7655675,193.787666 63.6615675,192.635666 C63.8855675,193.595666 64.6215675,194.683666 66.5095675,194.683666 Z M62.3495675,192.539666 C60.8455675,192.539666 60.0135675,190.971666 60.0135675,189.243666 C60.0135675,187.771666 60.3975675,187.163666 61.7415675,186.715666 L63.5655675,186.075666 L63.5655675,192.059666 C63.2775675,192.347666 62.8935675,192.539666 62.3495675,192.539666 Z M78.7733513,194.363666 L78.7733513,193.883666 L78.4213513,193.819666 C77.4293513,193.627666 76.9813513,193.275666 76.9813513,192.027666 L76.9813513,170.907666 L76.7253513,170.907666 L70.3253513,172.283666 L70.3253513,172.731666 C71.7333513,172.891666 72.1173513,173.499666 72.1173513,174.715666 L72.1173513,192.027666 C72.1173513,193.275666 71.7013513,193.627666 70.6773513,193.819666 L70.3253513,193.883666 L70.3253513,194.363666 L78.7733513,194.363666 Z M91.2369189,194.811666 C94.2129189,194.811666 96.5489189,193.083666 97.7009189,188.987666 L97.2849189,188.795666 C96.2289189,190.459666 95.0449189,191.195666 93.1569189,191.195666 C90.6289189,191.195666 88.5169189,189.403666 88.4529189,185.243666 L97.4129189,185.243666 C97.435776,184.992237 97.4423066,184.855094 97.4441725,184.738943 L97.4449189,184.603666 L97.4449189,184.603666 C97.4449189,181.723666 95.6529189,178.555666 91.3009189,178.555666 C87.4929189,178.555666 84.1329189,182.011666 84.1329189,187.067666 C84.1329189,191.611666 87.0769189,194.811666 91.2369189,194.811666 Z M93.2849189,184.475666 L88.4529189,184.475666 C88.5809189,181.211666 89.5729189,179.323666 91.0769189,179.323666 C92.4209189,179.323666 93.1569189,181.435666 93.2849189,184.475666 Z M104.332703,194.811666 C108.140703,194.811666 110.572703,192.411666 110.572703,189.563666 C110.572703,187.131666 109.164703,185.947666 106.220703,184.603666 L105.196703,184.155666 C103.180703,183.227666 102.380703,182.555666 102.380703,181.371666 C102.380703,180.251666 103.212703,179.291666 104.652703,179.291666 C106.892703,179.291666 108.140703,181.595666 108.780703,183.739666 L109.388703,183.739666 L109.484703,179.387666 C108.556703,178.971666 106.700703,178.555666 104.812703,178.555666 C101.228703,178.555666 98.7647026,180.731666 98.7647026,183.515666 C98.7647026,185.883666 100.364703,187.067666 102.796703,188.187666 L103.788703,188.635666 C105.900703,189.627666 106.828703,190.267666 106.828703,191.707666 C106.828703,193.179666 105.804703,194.043666 104.364703,194.043666 C101.868703,194.043666 100.236703,191.387666 99.5327026,188.763666 L98.9247026,188.763666 L98.8287026,193.787666 C100.204703,194.331666 102.092703,194.811666 104.332703,194.811666 Z M116.692486,194.715666 C118.484486,194.715666 120.244486,193.883666 121.364486,192.827666 L121.364486,192.315666 C120.916486,192.507666 120.340486,192.635666 119.828486,192.635666 C118.292486,192.635666 117.556486,191.803666 117.556486,189.979666 L117.556486,180.379666 L120.756486,180.379666 L121.140486,179.003666 L117.556486,179.003666 L117.556486,175.131666 L116.020486,175.131666 C115.156486,177.275666 113.524486,179.131666 110.932486,179.803666 L110.932486,180.379666 L112.692486,180.379666 L112.692486,190.683666 C112.692486,193.307666 114.260486,194.715666 116.692486,194.715666 Z M132.73227,194.683666 C134.01227,194.683666 135.45227,194.043666 136.57227,193.019666 L136.57227,192.539666 C136.34827,192.635666 136.06027,192.731666 135.80427,192.731666 C134.94027,192.731666 134.55627,192.219666 134.55627,191.131666 L134.55627,183.131666 C134.55627,180.667666 132.95627,178.555666 128.41227,178.555666 C124.44427,178.555666 122.46027,180.699666 122.04427,182.235666 C122.33227,182.779666 123.19627,183.611666 124.57227,183.611666 C125.62827,183.611666 126.30027,183.291666 126.65227,181.979666 C127.13227,180.027666 127.35627,179.195666 128.25227,179.195666 C129.27627,179.195666 129.78827,180.059666 129.78827,182.619666 L129.78827,185.371666 L125.66027,186.651666 C122.84427,187.547666 121.66027,188.507666 121.66027,190.491666 C121.66027,192.667666 123.16427,194.651666 125.88427,194.651666 C127.58027,194.651666 128.98827,193.787666 129.88427,192.635666 C130.10827,193.595666 130.84427,194.683666 132.73227,194.683666 Z M128.57227,192.539666 C127.06827,192.539666 126.23627,190.971666 126.23627,189.243666 C126.23627,187.771666 126.62027,187.163666 127.96427,186.715666 L129.78827,186.075666 L129.78827,192.059666 C129.50027,192.347666 129.11627,192.539666 128.57227,192.539666 Z M142.020054,194.715666 C143.812054,194.715666 145.572054,193.883666 146.692054,192.827666 L146.692054,192.315666 C146.244054,192.507666 145.668054,192.635666 145.156054,192.635666 C143.620054,192.635666 142.884054,191.803666 142.884054,189.979666 L142.884054,180.379666 L146.084054,180.379666 L146.468054,179.003666 L142.884054,179.003666 L142.884054,175.131666 L141.348054,175.131666 C140.484054,177.275666 138.852054,179.131666 136.260054,179.803666 L136.260054,180.379666 L138.020054,180.379666 L138.020054,190.683666 C138.020054,193.307666 139.588054,194.715666 142.020054,194.715666 Z M153.323838,194.811666 C156.299838,194.811666 158.635838,193.083666 159.787838,188.987666 L159.371838,188.795666 C158.315838,190.459666 157.131838,191.195666 155.243838,191.195666 C152.715838,191.195666 150.603838,189.403666 150.539838,185.243666 L159.499838,185.243666 C159.522695,184.992237 159.529225,184.855094 159.531091,184.738943 L159.531838,184.603666 L159.531838,184.603666 C159.531838,181.723666 157.739838,178.555666 153.387838,178.555666 C149.579838,178.555666 146.219838,182.011666 146.219838,187.067666 C146.219838,191.611666 149.163838,194.811666 153.323838,194.811666 Z M155.371838,184.475666 L150.539838,184.475666 C150.667838,181.211666 151.659838,179.323666 153.163838,179.323666 C154.507838,179.323666 155.243838,181.435666 155.371838,184.475666 Z" id="realestate"></path>
        </g>
    </g>
</svg>