<svg xmlns="http://www.w3.org/2000/svg" width="468" height="91" viewBox="0 0 468 91">
    <g fill="none" fill-rule="evenodd">
        <g>
            <g>
                <path fill="#6001D2" d="M41.221 24.023L29.917 52.673 18.71 24.023 0 24.023 20.855 73.235 13.351 90.969 31.671 90.969 59.444 24.023zM62.075 50.919c-6.626 0-11.598 5.359-11.598 11.597 0 6.137 4.778 11.207 11.208 11.207 6.627 0 11.596-5.262 11.596-11.598 0-6.237-4.774-11.206-11.207-11.206M75.035 2.39L56.717 46.631 77.18 46.631 95.501 2.39z" transform="translate(-81 -205) translate(81 205)"/>
                <path fill="#232A31" d="M388.85 42.953c.39-4.002 3.807-6.638 8.298-6.638 4.49 0 7.809 2.636 8.199 6.638H388.85zm16.79 13.569c-2.147 2.831-4.588 4.002-8.102 4.002-4.686 0-8.493-3.025-8.786-7.419h33.679c.098-.878.195-2.147.195-3.709 0-16.009-10.347-26.552-25.38-26.552-14.546 0-25.871 11.031-25.871 25.869 0 15.521 10.153 25.674 26.065 25.674 10.738 0 18.743-4.1 23.43-12.007l-15.23-5.858zm-75.362-7.907c0 15.815 11.324 25.772 26.064 25.772 3.71 0 7.907-.781 11.715-2.734V55.448c-2.733 1.953-5.76 2.929-8.884 2.929-6.248 0-10.836-3.904-10.836-9.762 0-5.857 4.686-9.762 10.836-9.762 3.124 0 6.053.878 8.884 2.734V25.382c-3.417-1.66-7.615-2.538-11.422-2.538-15.424 0-26.357 10.836-26.357 25.771zM192.438 73.02h17.864V42.074c0-11.909-6.54-19.23-16.985-19.23-5.76 0-10.446 2.44-13.277 7.028V24.21h-17.865v48.81h17.865V47.054c0-4.98 2.44-8.005 6.345-8.005 3.808 0 6.053 2.733 6.053 7.419V73.02zm115.094 0h17.865V42.074c0-11.909-6.541-19.23-16.986-19.23-5.76 0-10.446 2.44-13.277 7.028V24.21H277.27v48.81h17.864V47.054c0-4.98 2.44-8.005 6.346-8.005 3.807 0 6.052 2.733 6.052 7.419V73.02zm-54.765-24.405c0 5.467-4.393 9.859-10.055 9.859s-10.054-4.392-10.054-9.859 4.392-9.859 10.054-9.859 10.055 4.392 10.055 9.859zm-.488-24.405v5.174c-3.027-4.198-8.298-6.54-14.155-6.54-13.276 0-22.941 11.421-22.941 25.771 0 14.447 9.567 25.772 22.94 25.772 5.858 0 11.033-2.343 14.156-6.54v5.173h17.572V24.21h-17.572zm-96.45-14.35c0-5.271-4.392-9.86-10.054-9.86-5.466 0-9.957 4.491-9.957 9.86s4.49 9.86 9.957 9.86c5.662 0 10.055-4.588 10.055-9.86zm-18.937 63.161h17.864V24.21h-17.864v48.811zm-18.157-49.982c0-5.174 3.22-7.42 7.32-7.42 2.149 0 3.905.488 5.37 1.172V2.051C129.278.976 126.055.39 122.834.39c-13.764 0-21.867 8.494-21.867 22.258v1.562h-6.54v14.35h6.54v34.46h17.768V38.56h12.007V24.21h-12.007v-1.171z" transform="translate(-81 -205) translate(81 205)"/>
                <path fill="#6001D2" d="M424.67 17.517L439.437 17.517 439.437 2.392 453.03 2.392 453.03 17.517 467.887 17.517 467.887 31.113 453.03 31.113 453.03 46.417 439.437 46.417 439.437 31.113 424.67 31.113z" transform="translate(-81 -205) translate(81 205)"/>
            </g>
        </g>
    </g>
</svg>
